<?xml version="1.0" encoding="UTF-8" standalone="no"?>
<!-- Created with Inkscape (http://www.inkscape.org/) -->

<svg
   xmlns:dc="http://purl.org/dc/elements/1.1/"
   xmlns:cc="http://creativecommons.org/ns#"
   xmlns:rdf="http://www.w3.org/1999/02/22-rdf-syntax-ns#"
   xmlns:svg="http://www.w3.org/2000/svg"
   xmlns="http://www.w3.org/2000/svg"
   xmlns:xlink="http://www.w3.org/1999/xlink"
   xmlns:sodipodi="http://sodipodi.sourceforge.net/DTD/sodipodi-0.dtd"
   xmlns:inkscape="http://www.inkscape.org/namespaces/inkscape"
   width="821.33331"
   height="819.20001"
   id="svg2"
   sodipodi:version="0.32"
   inkscape:version="0.92.0 r"
   version="1.0"
   sodipodi:docname="pheniestexas.svg">
  <defs
     id="defs4">
    <clipPath
       clipPathUnits="userSpaceOnUse"
       id="clipPath5044">
      <path
         id="path5046"
         d="m -532.24805,711.7168 a 22.512425,22.512425 0 0 0 -20.96484,15.16211 l -17.05273,49.41797 -50.37696,13.96679 a 22.512425,22.512425 0 0 0 -7.54492,39.66016 l 41.72852,31.48828 -2.28321,52.22851 a 22.512425,22.512425 0 0 0 35.38672,19.42969 l 42.84375,-29.95508 48.96484,18.31055 a 22.512425,22.512425 0 0 0 29.41602,-27.65039 l -15.25,-50.00391 32.54492,-40.91015 a 22.512425,22.512425 0 0 0 -17.20703,-36.51953 l -52.26953,-0.94727 -28.84961,-43.5957 a 22.512425,22.512425 0 0 0 -19.08594,-10.08203 z"
         style="fill:#aa4400;fill-opacity:0.99134198;stroke:none;stroke-width:11.33858299;stroke-opacity:1"
         inkscape:connector-curvature="0" />
    </clipPath>
  </defs>
  <sodipodi:namedview
     id="base"
     pagecolor="#ffffff"
     bordercolor="#666666"
     borderopacity="1.0"
     gridtolerance="10000"
     guidetolerance="10"
     objecttolerance="10"
     inkscape:pageopacity="0.0"
     inkscape:pageshadow="2"
     inkscape:zoom="0.70920139"
     inkscape:cx="296.25157"
     inkscape:cy="358.754"
     inkscape:document-units="px"
     inkscape:current-layer="layer1"
     inkscape:window-width="1920"
     inkscape:window-height="1013"
     inkscape:window-x="0"
     inkscape:window-y="41"
     showgrid="false"
     inkscape:window-maximized="1" />
  <metadata
     id="metadata7">
    <rdf:RDF>
      <cc:Work
         rdf:about="">
        <dc:format>image/svg+xml</dc:format>
        <dc:type
           rdf:resource="http://purl.org/dc/dcmitype/StillImage" />
        <dc:title></dc:title>
      </cc:Work>
    </rdf:RDF>
  </metadata>
  <g
     inkscape:label="Layer 1"
     inkscape:groupmode="layer"
     id="layer1"
     transform="translate(-0.76190507,3.2708149)">
    <g
       id="g5057"
       transform="matrix(0.49838992,0,0,0.49838992,400.42023,441.53737)">
      <path
         d="m -572.66797,-14.566406 a 16.942847,16.942847 0 0 0 -16.94141,16.9082029 l -0.58593,304.2656231 -194.71485,-0.57031 a 16.942847,16.942847 0 0 0 -15.20117,24.51758 l -0.55078,-1.09961 v 2.80664 a 16.942847,16.942847 0 0 0 10.20117,15.52148 16.942847,16.942847 0 0 0 3.28516,3.69727 l 8.11523,6.74414 c 0.006,0.012 0.014,0.025 0.0195,0.0371 0.92717,2.02157 1.87979,3.74455 2.78907,5.32617 1.81855,3.16325 3.55664,5.79297 3.55664,5.79297 a 16.942847,16.942847 0 0 0 6.875,5.98242 l 9.74804,4.63477 c 1.18759,1.14832 2.4456,2.34724 4.65625,4.57226 1.25011,1.25824 2.21213,2.28123 2.9668,3.09375 0.31296,0.48898 0.67679,1.30073 0.94141,1.64649 1.26817,1.657 2.00833,2.21805 2.56836,2.68945 1.12004,0.9428 1.57256,1.18575 1.96484,1.43359 1.56914,0.99136 1.8476,1.05228 2.50195,1.37891 0.49719,0.24818 1.11328,0.52775 1.65625,0.78711 a 16.942847,16.942847 0 0 0 11.35157,12.69922 l 1.17773,0.38281 c 1.02764,1.22279 1.19693,1.50201 2.53125,2.97266 1.57632,1.73737 2.98555,3.35136 5.53516,5.41406 1.2748,1.03135 1.72614,2.65764 8.17382,4.09375 1.2438,0.27703 3.18,0.31583 5.28516,0.11133 l 4.20703,3.4082 6.30664,7.16992 1.35938,8.82813 a 16.942847,16.942847 0 0 0 4.78125,9.41797 l 2.67969,2.67187 -0.59961,6.30469 a 16.942847,16.942847 0 0 0 0.98437,7.50586 c 0,0 0.50857,1.3769 0.99024,2.84961 0.24083,0.73635 0.46484,1.48368 0.55468,1.82422 0.0899,0.34053 -0.18164,1.13431 -0.18164,-2.27539 0,10.49898 3.67548,11.17616 5.17188,12.88867 0.77347,0.88517 1.3401,1.33003 1.99414,1.95117 0.40325,5.63349 2.62146,8.51916 4.06445,10.41992 1.58519,2.08807 2.92183,3.2925 4.08594,4.30274 2.32821,2.02046 4.41016,3.31836 4.41016,3.31836 a 16.942847,16.942847 0 0 0 3.90234,1.85546 l 5.93164,1.9375 0.73242,1.42969 a 16.942847,16.942847 0 0 0 4.97656,5.87695 l 9.67383,7.18555 a 16.942847,16.942847 0 0 0 10.16602,3.3418 l 3.16601,-0.0117 3.59961,3.58203 a 16.942847,16.942847 0 0 0 8.56055,4.5918 l 0.88086,0.17968 -0.76758,-1.23632 a 16.942847,16.942847 0 0 0 7.55469,6.56445 l 10.03711,4.42773 a 16.942847,16.942847 0 0 0 3.64258,1.13672 l 8.32812,1.59961 a 16.942847,16.942847 0 0 0 16.16406,-5.73633 l 5.18946,-6.17578 8.16406,-6.81836 a 16.942847,16.942847 0 0 0 4.95898,-6.94336 l 4.15821,-10.85937 a 16.942847,16.942847 0 0 0 0.41992,-1.23242 l 2.76172,-9.29492 3.23828,-4.20704 7.05859,-1.33203 a 16.942847,16.942847 0 0 0 6.5332,-2.75781 l -3.85546,-2.21484 a 16.942847,16.942847 0 0 0 4.45898,1.76757 16.942847,16.942847 0 0 0 3.53711,-3.63867 l -2.70313,3.81055 a 16.942847,16.942847 0 0 0 2.03321,0.27734 l 5.45312,0.36133 12.47657,3.03125 a 16.942847,16.942847 0 0 0 6.96093,0.2168 l 9.95117,-1.76563 1.37891,1.89649 7.375,10.24219 a 16.942847,16.942847 0 0 0 3.61719,3.67773 l 10.71094,7.99219 a 16.942847,16.942847 0 0 0 2.40039,1.49609 l 4.71679,2.41992 2.9668,5.57422 a 16.942847,16.942847 0 0 0 3.04492,4.08985 l 2.65821,2.62695 0.51757,4.89648 a 16.942847,16.942847 0 0 0 6.52539,11.64844 l 2.61329,2.00781 1.28906,4.75 a 16.942847,16.942847 0 0 0 1.41797,3.56836 l 4.41601,8.23828 3.67969,9.33399 2.35742,6.70703 a 16.942847,16.942847 0 0 0 8.10547,9.38086 l 3.97266,2.08594 0.0625,-2.08008 a 16.942847,16.942847 0 0 0 9.47265,15.71875 l 0.4043,0.19922 1.25195,4.51758 a 16.942847,16.942847 0 0 0 5.65625,8.63671 l 8.31446,6.74219 a 16.942847,16.942847 0 0 0 2.97461,1.93555 l 3.48046,1.77539 c 10e-5,0.001 0.002,0.003 0.002,0.004 -2e-5,-0.002 1e-5,-0.002 0,-0.004 l 0.30664,0.15625 c -0.0989,0.25201 -0.13692,0.34584 -0.21289,0.52148 0.10939,1.06787 0.18068,2.02846 0.51953,3.72266 -0.34041,-1.70209 -0.48844,-2.76917 -0.57227,-3.5957 -0.0569,0.12945 -0.18945,0.46289 -0.18945,0.46289 a 16.942847,16.942847 0 0 0 2.27734,18.16601 c -0.26738,2.97251 -0.45507,5.73633 -0.45507,5.73633 a 16.942847,16.942847 0 0 0 8.61328,15.83789 l 5.7207,3.21094 -0.10352,7.02148 a 16.942847,16.942847 0 0 0 5.04883,12.31641 l 3.75977,3.70508 0.16992,2.00976 a 16.942847,16.942847 0 0 0 16.18164,15.49414 l 6.68164,0.27735 -1.14258,-2.63867 a 16.942847,16.942847 0 0 0 12.44922,9.92578 l 9.125,1.69726 6.24219,2.82422 8.56836,5.56836 a 16.942847,16.942847 0 0 0 6.55273,2.52344 l 16.80469,2.6914 a 16.942847,16.942847 0 0 0 4.35547,0.12891 l 4.74805,-0.4707 4.43164,2.38867 8.1914,6.75976 a 16.942847,16.942847 0 0 0 22.13672,-0.49218 l 1.3457,-1.2168 -0.20117,-0.0527 a 16.942847,16.942847 0 0 0 19.76172,-23.34961 l -0.9414,-2.08399 a 16.942847,16.942847 0 0 0 1.78906,-13.36133 l -4.44141,-15.53906 a 16.942847,16.942847 0 0 0 -0.13281,-0.4414 l -2.66016,-8.42774 -4.10156,-13.04883 v -15.60351 a 16.942847,16.942847 0 0 0 -0.1875,-2.51367 l -0.32227,-2.15039 c 1.41574,-2.82976 2.28515,-5.72436 2.28516,-7.76758 0,2.82906 -0.17902,2.18164 -0.125,1.91406 0.054,-0.26758 0.19909,-0.91471 0.39258,-1.69727 0.38697,-1.56512 0.96693,-3.7231 1.55273,-5.82617 0.86417,-3.10239 1.34311,-4.69847 1.74219,-6.05469 0.8697,-1.35596 1.83927,-2.83929 3.7207,-5.91796 1.29374,-2.11701 2.60055,-4.30394 3.7461,-6.38672 0.57277,-1.0414 1.09796,-2.02501 1.66211,-3.25586 0.39024,-0.85142 1.15846,-0.83923 1.60742,-3.29102 0.90629,-1.3626 2.08731,-3.0761 3.38867,-4.88867 2.39377,-3.33411 4.01172,-5.46614 4.84375,-6.57227 l 5.92969,-4.88476 a 16.942847,16.942847 0 0 0 0.10156,-0.0937 16.942847,16.942847 0 0 0 6.33789,-4.5332 c 0.59771,-0.0969 1.2912,-0.17628 1.83985,-0.27735 2.60003,-0.47894 4.80859,-1.0039 4.80859,-1.0039 a 16.942847,16.942847 0 0 0 12.15234,-11.05469 16.942847,16.942847 0 0 0 4.71289,-1.77344 l 34.80469,-19.60156 c 3.08094,-0.14078 7.1888,2.02019 15.47656,-6.26758 3.38444,-3.38448 4.17478,-4.98206 5.75196,-7.16602 1.43038,-1.98068 2.40762,-3.40497 2.62109,-3.71484 0.0134,-0.018 1.71409,-2.31114 3.593751,-4.39062 0.336594,-0.37238 0.440323,-0.4365 0.75,-0.74805 3.678905,-0.8041 5.277397,-2.32941 7.128906,-3.43555 2.600317,-1.55349 4.764041,-3.16012 6.730469,-4.69336 3.932855,-3.06647 7.101562,-5.99804 7.101562,-5.99804 a 16.942847,16.942847 0 0 0 4.820313,-7.91016 l 8.998047,-4.26367 c 0.227825,-0.10053 3.707986,-1.63533 7.716796,-3.44727 2.068885,-0.93511 4.215592,-1.91388 6.074219,-2.78711 1.858627,-0.87322 2.675829,-1.1301 5.154297,-2.61719 1.719827,-1.03196 1.91117,-1.27064 2.4375,-1.68359 l 5.681641,1.09961 a 16.942847,16.942847 0 0 0 19.140625,-22.42383 l -0.173828,-0.48047 3.486328,-4.75586 a 16.942847,16.942847 0 0 0 3.048828,-7.23046 l 1.238281,-7.42579 a 16.942847,16.942847 0 0 0 0.2304688,-2.78711 v -14.82226 l 0.5683593,-7.39844 a 16.942847,16.942847 0 0 0 0.050781,-1.29883 v -4.55273 l 2.3554687,-2.57031 a 16.942847,16.942847 0 0 0 4.3398438,-9.50196 L 0.57421875,396.7168 a 16.942847,16.942847 0 0 0 0.11132813,-1.94336 V 382.39453 A 16.942847,16.942847 0 0 0 -5.65625,369.18555 l -1.2148438,3.95507 a 16.942847,16.942847 0 0 0 0.7148438,-4.33007 16.942847,16.942847 0 0 0 -0.703125,-0.51367 l 0.7050781,0.4707 a 16.942847,16.942847 0 0 0 -1.2441406,-7.05664 L -10.947266,353.08984 -12.5,342.74609 a 16.942847,16.942847 0 0 0 -2.044922,-5.89062 l -7.425781,-12.99805 a 16.942847,16.942847 0 0 0 -1.388672,-2.0625 l -3.154297,-4.01367 0.585938,-99.91992 a 16.942847,16.942847 0 0 0 -2.845704,-9.4961 l -3.71289,-5.57031 a 16.942847,16.942847 0 0 0 -13.205078,-7.52148 l -11.759766,-0.61914 a 16.942847,16.942847 0 0 0 -3.320312,0.15429 l -2.164063,-1.49804 a 16.942847,16.942847 0 0 0 -9.800781,-3.00196 l 1.880859,2.19141 a 16.942847,16.942847 0 0 0 -2.263672,-2.17578 16.942847,16.942847 0 0 0 -0.867187,0.0332 l 0.828125,-0.0684 a 16.942847,16.942847 0 0 0 -10.1875,-3.69336 L -82,188.16602 a 16.942847,16.942847 0 0 0 -0.878906,-0.95118 c 0,0 -0.600284,-0.54421 -0.681641,-0.625 a 16.942847,16.942847 0 0 0 -0.158203,-0.006 h 0.152344 c -0.48908,-0.48559 -1.782904,-1.79739 -4.0625,-3.72656 -1.332716,-1.12784 -2.810428,-2.33397 -4.814453,-3.63086 -1.269104,-0.82128 -2.45505,-2.06866 -5.140625,-2.91015 -0.699399,-0.70136 -1.294878,-1.35836 -2.679686,-2.45118 -1.94516,-1.53501 -4.86916,-4.60937 -12.54492,-4.60937 -8.38187,0 -8.35866,1.75275 -10.38282,2.7207 -1.10299,0.52745 -2.0213,1.07348 -3.01367,1.61524 l -0.91406,-0.48828 a 16.942847,16.942847 0 0 0 -16.94922,0.58398 l -4.02148,2.51172 -4.36914,-0.96875 a 16.942847,16.942847 0 0 0 -13.63672,2.83398 c 0,0 -1.45506,1.05824 -3.22266,2.23633 -1.03298,0.68847 -2.36877,1.41222 -3.04297,1.80078 -0.57288,0.13937 -1.49596,0.37361 -2.26953,0.48828 -1.18081,0.17504 -1.69365,0.21952 -2.125,0.26368 a 16.942847,16.942847 0 0 0 -26.29297,-7.55469 l -0.0332,0.0273 -1.10742,-1.10742 a 16.942847,16.942847 0 0 0 -23.43946,-0.4707 16.942847,16.942847 0 0 0 -6.26757,0.34765 l -2.11524,0.5293 c -4.24431,-2.93226 -7.61514,-3.34185 -10.0332,-3.58398 -0.70043,-0.0701 -1.0602,0.0241 -1.6875,0.004 l -2.9961,-1.19726 a 16.942847,16.942847 0 0 0 -10.42968,-0.67969 16.942847,16.942847 0 0 0 -20.39063,-11.78516 l -4.16797,1.04102 -1.42773,-0.64844 a 16.942847,16.942847 0 0 0 -14.93359,0.45117 l -0.0605,0.0332 2.60742,2.34765 a 16.942847,16.942847 0 0 0 -13.72852,-4.17969 c 0,0 -2.90938,0.40873 -5.89257,0.80469 a 16.942847,16.942847 0 0 0 -13.94336,-6.51367 16.942847,16.942847 0 0 0 -0.002,0 16.942847,16.942847 0 0 0 -1.9414,0.15625 l 1.89453,-0.28516 a 16.942847,16.942847 0 0 0 -1.38477,-3.1289 l -2.47656,-4.33203 a 16.942847,16.942847 0 0 0 -20.78711,-7.4043 l -2.64453,1.01758 -0.64453,-0.19531 a 16.942847,16.942847 0 0 0 -9.16602,-0.13477 l -3.06445,-3.71094 a 16.942847,16.942847 0 0 0 -10.66406,-5.98242 l 5.94531,0.84961 0.55469,-125.1191412 a 16.942847,16.942847 0 0 0 -16.94141,-17.0156248 z m 194.37109,155.757816 a 16.942847,16.942847 0 0 0 -4.26171,8.25976 l 1.52734,-7.6289 z m 166.3125,41.95312 a 16.942847,16.942847 0 0 0 -0.58789,0.89258 c 0.0833,-0.1484 0.27777,-0.46396 0.58789,-0.89258 z m 35.8125,1.61133 c 0.002,6.5e-4 0.0124,0.028 0.0156,0.041 a 16.942847,16.942847 0 0 0 -0.004,-0.002 16.942847,16.942847 0 0 0 -0.0117,-0.0391 z m -557.63671,177.09375 c 1.86039,0.0262 3.14325,0.50456 4.02343,0.72461 -0.51784,-0.12946 -1.03168,-0.33472 -2.95117,-0.48047 -0.90469,-0.0687 -2.16972,-0.24031 -4.91992,0.37109 1.47231,-0.41114 2.78571,-0.63018 3.84766,-0.61523 z m -15.45118,10.33203 c -0.0103,0.0268 -0.0111,0.0315 -0.0215,0.0586 0.006,-0.0135 0.004,-0.0235 0.01,-0.0371 0.003,-0.007 0.009,-0.0143 0.0117,-0.0215 z m -0.83007,11.99609 c 0.10153,0.30365 0.16735,0.72731 0.27343,0.9961 -0.0948,-0.31241 -0.18568,-0.58296 -0.27343,-0.9961 z m 0.36718,1.25977 c 0.38243,0.92895 0.70261,1.25745 1.06446,1.85938 -0.34191,-0.24605 -0.65993,-0.67012 -1.06446,-1.85938 z m 666.298832,89.32227 c 0,0 0.179727,0.2278 0.398437,0.89062 a 16.942847,16.942847 0 0 0 -0.398437,-0.89062 z m -27.244142,10.49414 c 0.0587,0.16635 0.41394,0.81155 0.53906,1.12109 -0.57548,-1.12793 -0.77104,-1.77854 -0.53906,-1.12109 z m 14.607423,47.18945 c 0.08577,-0.0686 0.04921,0.46813 -0.994141,0.99219 0.355944,-0.3458 0.917773,-0.9311 0.994141,-0.99219 z m -2.773437,1.57422 c -1.007863,0.19692 -2.347086,0.33398 -4.181636,0.33398 1.68715,0 2.96524,-0.15696 4.181636,-0.33398 z M -250.9375,697.21289 a 16.942847,16.942847 0 0 0 1.20703,0.45508 l 0.42969,1.31641 z"
         inkscape:href="#path3816"
         id="path5050"
         style="fill:#93181b;fill-opacity:1;fill-rule:evenodd;stroke:none;stroke-width:11.33858299;stroke-linecap:butt;stroke-linejoin:miter;stroke-miterlimit:4;stroke-dasharray:none;stroke-opacity:1"
         xlink:href="#path3816"
         inkscape:original="M -572.66797 2.375 L -573.28711 323.59766 L -784.95898 322.97852 L -783.7207 325.45508 L -783.7207 332.26172 L -780.00781 333.5 L -776.91406 337.21484 L -763.44336 339.82422 L -776.34766 338.45117 L -764.58594 348.22461 C -764.58594 350.88846 -758.54492 360.06445 -758.54492 360.06445 L -746.23438 365.91797 C -746.23438 365.91797 -732.11863 379.45375 -733.89453 379.00977 C -735.67043 378.5658 -722.78125 384.33594 -722.78125 384.33594 L -722.24219 392.18164 L -716.50977 394.03906 C -716.50977 394.03906 -705.9082 407.27774 -705.9082 404.16992 C -705.9082 401.06211 -696.57031 406.10742 -696.57031 406.10742 L -688.7793 412.41797 L -678.25781 424.37891 L -676.14453 438.10156 L -667.80469 446.41797 L -669.16211 460.67969 C -669.16211 460.67969 -666.73828 467.20262 -666.73828 468.97852 C -666.73828 470.75441 -660.41406 475.32813 -660.41406 475.32812 C -660.41406 475.32812 -659.72852 479.99497 -659.72852 482.21484 C -659.72852 484.43471 -654.78906 487.61133 -654.78906 487.61133 L -642.22266 491.7168 L -638.30859 499.35938 L -628.63477 506.54492 L -618.4375 506.50586 L -609.85352 515.05078 L -601.82031 516.69141 L -598.73828 521.65625 L -588.70117 526.08398 L -580.37305 527.68359 L -574.22266 520.36523 L -564.91211 512.58789 L -560.75391 501.72852 L -557.0957 489.41797 L -548 477.60352 L -534.59766 475.07422 L -528.94727 467.10938 L -520.33398 472.06055 L -513.41992 472.51758 L -499.52148 475.89453 L -484.20898 473.17578 L -477.05078 475.1543 L -471.50781 482.76953 L -464.10742 493.04688 L -453.39648 501.03906 L -443.95117 505.88281 L -438.48828 516.14844 L -431.53125 523.02539 L -430.375 533.93555 L -423.23047 539.42578 L -420.44531 549.69141 L -415.5625 558.80078 L -411.4043 569.34961 L -408.94141 576.35742 L -395.59375 583.36719 L -395.84961 591.87109 L -388.61133 595.42188 L -385.32812 607.27539 L -377.01367 614.01758 L -364.79688 620.24609 C -364.79688 620.24609 -364.44593 629.74497 -364.00195 631.96484 C -363.55799 634.18471 -366.10156 639.48438 -366.10156 639.48438 C -366.10156 639.48438 -360.18236 641.79966 -361.07031 644.01953 C -361.95827 646.23941 -362.64453 657.12305 -362.64453 657.12305 L -351.59766 663.32617 L -348.2207 671.41211 L -348.38281 682.37695 L -340.16211 690.47852 L -339.46289 698.72656 L -322.1582 699.44141 L -319.07617 706.56055 L -307.93555 708.63281 L -298.65234 712.83203 L -289.00586 719.10156 L -272.20117 721.79297 L -262.29688 720.80859 L -251.84375 726.44531 L -242.37109 734.26172 L -234.21875 726.90039 L -225.55273 729.18555 L -229.57617 720.27148 L -229.99414 712.75977 L -231.25781 702.33789 L -244.22461 681.67188 L -242.86914 685.23242 C -242.86914 685.23242 -243.09129 687.45416 -243.25781 689.95312 L -254.0918 665.94727 L -244.22461 681.67188 L -246.41992 675.91016 L -247.30859 671.02539 L -249.97266 669.69336 L -247.30859 666.14258 L -249.52734 662.58984 L -248.64062 656.81836 L -245.5332 651.04688 L -245.97656 644.83203 L -250.85938 644.38672 L -261.07227 642.16797 L -257.07617 640.39062 L -258.85156 631.95508 L -252.19141 636.83984 L -247.75195 634.61914 L -244.20117 639.05859 L -246.86523 631.06836 L -240.64844 625.74023 L -234.43359 623.07617 L -233.54492 615.5293 L -237.09766 610.20117 L -241.0918 606.20508 L -245.5332 602.6543 L -233.10156 602.6543 L -231.32422 604.42969 L -222.44531 596.4375 L -219.78125 588.44727 L -227.77344 593.33008 L -228.2168 589.33398 L -234.43359 588.44727 L -225.10938 584.00586 L -229.10547 581.78711 L -219.33789 580.45508 L -216.23047 577.34766 L -213.12305 586.22656 L -214.89844 593.77344 L -222.00195 603.09766 L -230.4375 618.19336 L -236.20898 629.73633 L -238.87305 641.72266 C -238.87305 641.72266 -235.76563 643.49918 -235.76562 641.2793 C -235.76562 639.05943 -230.88086 622.63281 -230.88086 622.63281 C -230.88086 622.63281 -221.11328 607.53762 -221.11328 605.76172 C -221.11328 603.98582 -208.68164 587.55859 -208.68164 587.55859 L -201.13477 581.3418 L -208.23828 580.45508 L -206.01953 576.01562 L -206.01953 570.24414 L -208.23828 562.69531 C -208.23828 562.69531 -200.24609 561.36484 -200.24609 564.47266 C -200.24609 567.58048 -198.4707 572.90625 -198.4707 572.90625 L -194.91992 572.90625 L -196.69531 578.67969 C -196.69531 578.67969 -192.25638 572.90759 -190.48047 573.35156 C -188.70458 573.79554 -181.15625 572.01953 -181.15625 572.01953 L -186.03906 568.02344 C -186.03906 568.02344 -192.69922 572.46268 -192.69922 569.79883 C -192.69922 567.13499 -186.03906 564.02734 -186.03906 564.02734 L -191.81055 555.5918 L -198.4707 555.5918 L -197.13867 549.37695 L -199.35938 544.04883 L -192.69922 546.26953 L -190.92383 541.82812 L -192.69922 549.37695 L -188.25977 550.26367 C -188.25977 550.26367 -189.1475 556.48047 -185.5957 556.48047 C -182.0439 556.48047 -183.82031 551.15234 -183.82031 551.15234 L -185.5957 546.71289 L -185.5957 540.94141 L -180.71289 547.15625 L -177.16016 552.92773 L -169.16797 543.16016 L -171.83203 553.81641 L -162.50977 550.70898 L -154.96094 548.93164 L -148.30273 544.04883 L -142.97461 544.9375 L -172.7207 559.14453 L -168.72461 560.91992 L -130.09961 539.16602 C -130.09961 539.16602 -123.88331 539.60987 -122.10742 537.83398 C -120.33153 536.05807 -115.44727 528.95312 -115.44727 528.95312 C -115.44727 528.95312 -107.0114 517.41016 -103.01562 517.41016 C -99.019864 517.41016 -87.921875 507.19922 -87.921875 507.19922 L -94.136719 509.41797 L -101.24023 516.07812 L -112.7832 520.51758 L -111.45117 509.41797 C -111.45117 509.41797 -101.68421 514.30323 -101.24023 512.52734 C -100.79626 510.75143 -97.689453 506.31055 -97.689453 506.31055 C -97.689453 506.31055 -92.360708 508.53042 -92.804688 506.31055 C -93.248648 504.09069 -93.25 498.32031 -93.25 498.32031 L -99.908203 496.98828 L -98.132812 491.2168 L -104.34766 487.66406 L -98.576172 482.33594 C -98.576172 482.33594 -101.2399 477.00914 -97.244141 477.45312 C -93.248361 477.89709 -96.356376 481.44922 -91.472656 481.44922 C -86.588936 481.44922 -86.146484 473.90039 -86.146484 473.90039 C -86.146484 473.90039 -81.261719 476.12059 -81.261719 477.89648 C -81.261719 479.67239 -82.150391 488.10742 -82.150391 488.10742 L -86.146484 491.66016 L -70.607422 491.2168 L -86.589844 500.0957 L -69.71875 492.10352 C -69.71875 492.10352 -54.624167 485.44521 -52.404297 484.11328 C -52.224742 484.00554 -50.448473 481.88375 -47.988281 478.39453 L -32.347656 481.42383 L -34.824219 474.61523 L -33.585938 469.66406 L -26.777344 460.37891 L -25.539062 452.95312 L -25.539062 437.48047 L -24.919922 429.43359 L -24.919922 418.29297 L -18.113281 410.86523 L -16.255859 394.77344 L -16.255859 382.39453 L -25.539062 376.20703 L -23.064453 368.16016 L -27.396484 357.63867 L -29.253906 345.25977 L -36.679688 332.26172 L -43.488281 323.59766 L -42.869141 217.76172 L -46.582031 212.19141 L -58.341797 211.57227 L -59.580078 217.76172 L -64.53125 212.81055 L -72.578125 207.24023 L -80.003906 207.85938 L -83.71875 203.52539 L -91.144531 203.52539 L -94.859375 199.19336 C -94.859375 199.19336 -101.66689 192.38477 -104.14258 192.38477 C -106.61828 192.38477 -110.3329 186.19727 -112.80859 186.19727 C -115.28429 186.19727 -125.80469 193.00391 -125.80469 193.00391 L -135.08984 188.05273 L -144.99219 194.24219 L -156.13281 191.76758 C -156.13281 191.76758 -162.94054 196.71723 -166.03516 197.95508 C -169.12977 199.19293 -175.9375 199.8125 -175.9375 199.8125 L -179.0332 206.00195 L -183.98438 199.8125 L -190.79297 196.71875 L -192.64844 188.67188 L -198.21875 193.00391 C -198.21875 193.00391 -200.69423 197.33789 -203.16992 197.33789 C -205.64562 197.33789 -210.59766 191.76758 -210.59766 191.76758 L -216.16797 186.19727 L -216.78711 191.76758 C -216.78711 191.76758 -218.64387 196.09983 -222.35742 196.71875 C -226.07096 197.33768 -224.21484 204.76367 -224.21484 204.76367 C -224.21484 204.76367 -228.54688 201.66905 -228.54688 199.19336 C -228.54688 196.71766 -229.78516 190.5293 -229.78516 190.5293 L -232.25977 191.14844 L -240.92578 196.09961 C -240.92578 196.09961 -244.63867 194.24283 -244.63867 190.5293 C -244.63867 186.81575 -250.82812 188.05273 -250.82812 188.05273 L -257.01758 185.57812 L -270.01367 194.86133 L -273.10938 186.19727 L -281.77344 178.76953 L -277.44141 173.81836 L -287.34375 176.29297 L -294.15234 173.19922 L -304.67383 178.76953 L -310.86328 173.19922 C -310.86328 173.19922 -323.86025 175.05664 -326.33594 175.05664 C -328.81164 175.05664 -332.52539 167.62891 -332.52539 167.62891 L -344.9043 169.48633 L -349.23633 155.86914 L -351.71289 151.53711 L -359.75781 154.63086 L -365.94727 152.77539 L -366.56641 155.86914 L -374.61328 157.72656 L -386.37305 143.49023 L -395.03711 142.25195 L -394.41797 2.375 L -572.66797 2.375 z M -231.25781 702.33789 L -225.55273 711.42773 L -229.99414 695.88867 L -232.65625 687.45312 L -237.54102 671.91406 L -237.54102 653.71094 L -238.87305 644.83203 L -241.0918 646.60742 L -241.0918 657.26172 L -241.0918 668.80664 L -237.98438 679.01758 L -231.76953 698.10742 L -231.25781 702.33789 z M -237.98438 697.66406 C -237.98438 697.66406 -238.26882 698.77762 -238.66406 700.13086 L -239.70508 697.82812 C -238.7541 697.79752 -237.98437 697.66406 -237.98438 697.66406 z "
         inkscape:radius="16.941153"
         sodipodi:type="inkscape:offset" />
      <path
         inkscape:connector-curvature="0"
         id="path3816"
         d="m -572.66778,2.3756695 -0.61914,321.2226605 -211.67187,-0.61914 1.23828,2.47656 v 6.80664 l 3.71289,1.23828 3.09375,3.71485 13.4707,2.60937 -12.9043,-1.37304 11.76172,9.77343 c 0,2.66385 6.04102,11.83985 6.04102,11.83985 l 12.31055,5.85351 c 0,0 14.11574,13.53578 12.33984,13.0918 -1.7759,-0.44397 11.11328,5.32617 11.11328,5.32617 l 0.53906,7.8457 5.73243,1.85743 c 0,0 10.60156,13.23868 10.60156,10.13086 0,-3.10781 9.33789,1.9375 9.33789,1.9375 l 7.79101,6.31054 10.52149,11.96094 2.11328,13.72266 8.33984,8.3164 -1.35742,14.26172 c 0,0 2.42383,6.52293 2.42383,8.29883 0,1.77589 6.32422,6.34961 6.32422,6.34961 0,0 0.68555,4.66685 0.68555,6.88672 0,2.21987 4.93945,5.39648 4.93945,5.39648 l 12.5664,4.10547 3.91407,7.64258 9.67383,7.18555 10.19726,-0.0391 8.58399,8.54493 8.0332,1.64062 3.08203,4.96484 10.03711,4.42774 8.32812,1.59961 6.15039,-7.31836 9.31055,-7.77734 4.15821,-10.85938 3.6582,-12.31055 9.0957,-11.81445 13.40234,-2.5293 5.6504,-7.96484 8.61328,4.95117 6.91406,0.45703 13.89844,3.37696 15.3125,-2.71875 7.1582,1.97851 5.54297,7.61524 7.40039,10.27734 10.71094,7.99219 9.44531,4.84375 5.46289,10.26562 6.95703,6.87696 1.15625,10.91015 7.14453,5.49024 2.78516,10.26562 4.88281,9.10938 4.1582,10.54882 2.4629,7.00782 13.34765,7.00976 -0.25586,8.50391 7.23828,3.55078 3.28321,11.85352 8.31445,6.74218 12.2168,6.22852 c 0,0 0.35094,9.49888 0.79492,11.71875 0.44396,2.21987 -2.09961,7.51953 -2.09961,7.51953 0,0 5.9192,2.31529 5.03125,4.53516 -0.88796,2.21988 -1.57422,13.10351 -1.57422,13.10351 l 11.04687,6.20313 3.37696,8.08593 -0.16211,10.96485 8.2207,8.10156 0.69922,8.24805 17.30469,0.71484 3.08203,7.11914 11.14062,2.07227 9.28321,4.19922 9.64648,6.26953 16.80469,2.6914 9.9043,-0.98437 10.45312,5.63672 9.47266,7.8164 8.15234,-7.36132 8.66602,2.28515 -4.02344,-8.91406 -0.41797,-7.51172 -1.26367,-10.42187 -12.9668,-20.66602 1.35547,3.56055 c 0,0 -0.22215,2.22174 -0.38867,4.7207 l -10.83399,-24.00586 9.86719,15.72461 -2.19531,-5.76172 -0.88867,-4.88476 -2.66407,-1.33204 2.66407,-3.55078 -2.21875,-3.55273 0.88672,-5.77149 3.10742,-5.77148 -0.44336,-6.21484 -4.88281,-0.44532 -10.21289,-2.21875 3.99609,-1.77734 -1.77539,-8.43555 6.66016,4.88477 4.43945,-2.22071 3.55078,4.43946 -2.66406,-7.99024 6.21679,-5.32812 6.21485,-2.66406 0.88867,-7.54688 -3.55274,-5.32812 -3.99414,-3.9961 -4.4414,-3.55078 h 12.43164 l 1.77734,1.77539 8.87891,-7.99219 2.66406,-7.99023 -7.99219,4.88281 -0.44336,-3.99609 -6.21679,-0.88672 9.32422,-4.44141 -3.9961,-2.21875 9.76758,-1.33203 3.10742,-3.10742 3.10742,8.87891 -1.77539,7.54687 -7.10351,9.32422 -8.43555,15.0957 -5.77148,11.54297 -2.66407,11.98633 c 0,0 3.10743,1.77652 3.10743,-0.44336 0,-2.21987 4.88476,-18.64648 4.88476,-18.64648 0,0 9.76758,-15.0952 9.76758,-16.8711 0,-1.7759 12.43164,-18.20312 12.43164,-18.20312 l 7.54688,-6.2168 -7.10352,-0.88672 2.21875,-4.43945 v -5.77149 l -2.21875,-7.54879 c 0,0 7.99219,-1.33048 7.99219,1.77734 0,3.10782 1.77539,8.43359 1.77539,8.43359 h 3.55078 l -1.77539,5.77344 c 0,0 4.43893,-5.77209 6.21484,-5.32812 1.77589,0.44398 9.32422,-1.33203 9.32422,-1.33203 l -4.88281,-3.9961 c 0,0 -6.66016,4.43924 -6.66016,1.77539 0,-2.66384 6.66016,-5.77148 6.66016,-5.77148 l -5.77149,-8.43555 h -6.66015 l 1.33203,-6.21484 -2.2207,-5.32813 6.66015,2.22071 1.77539,-4.44141 -1.77539,7.54883 4.43946,0.88672 c 0,0 -0.88774,6.21679 2.66406,6.21679 3.5518,0 1.77539,-5.32812 1.77539,-5.32812 l -1.77539,-4.43945 v -5.77149 l 4.88281,6.21484 3.55273,5.77149 7.99219,-9.76758 -2.66406,10.65625 9.32227,-3.10742 7.54882,-1.77735 6.65821,-4.88281 5.32812,0.88867 -29.74609,14.20704 3.99609,1.77539 38.625,-21.75391 c 0,0 6.2163,0.44386 7.99219,-1.33203 1.77589,-1.77591 6.66016,-8.88086 6.66016,-8.88086 0,0 8.43587,-11.54297 12.43164,-11.54297 3.995761,0 15.093741,-10.21094 15.093741,-10.21094 l -6.214844,2.21875 -7.103507,6.66016 -11.54297,4.43945 1.33203,-11.09961 c 0,0 9.76696,4.88527 10.21094,3.10938 0.44397,-1.77591 3.550773,-6.2168 3.550773,-6.2168 0,0 5.328746,2.21987 4.884766,0 -0.44396,-2.21986 -0.445313,-7.99023 -0.445313,-7.99023 l -6.658201,-1.33203 1.775389,-5.77149 -6.214844,-3.55273 5.771484,-5.32813 c 0,0 -2.663724,-5.32679 1.332032,-4.88281 3.99578,0.44396 0.887764,3.99609 5.771484,3.99609 4.88372,0 5.326172,-7.54882 5.326172,-7.54882 0,0 4.884765,2.2202 4.884765,3.99609 0,1.77591 -0.888671,10.21094 -0.888671,10.21094 l -3.996094,3.55273 15.539062,-0.44336 -15.982421,8.87891 16.871093,-7.99219 c 0,0 15.094583,-6.6583 17.314453,-7.99023 0.179555,-0.10774 1.955824,-2.22953 4.416016,-5.71875 l 15.640625,3.02929 -2.476563,-6.80859 1.238282,-4.95117 6.808594,-9.28516 1.238281,-7.42578 v -15.47266 l 0.61914,-8.04687 v -11.14063 l 6.806641,-7.42773 1.857422,-16.0918 v -12.3789 l -9.283203,-6.1875 2.474609,-8.04688 -4.332031,-10.52148 -1.857422,-12.37891 -7.425781,-12.99805 -6.808594,-8.66406 0.619141,-105.83594 -3.712891,-5.57031 -11.759766,-0.61914 -1.238281,6.18945 -4.951172,-4.95117 -8.046875,-5.57031 -7.425781,0.61914 -3.714844,-4.33398 h -7.425781 l -3.714844,-4.33204 c 0,0 -6.807511,-6.80859 -9.283201,-6.80859 -2.4757,0 -6.19032,-6.1875 -8.66601,-6.1875 -2.4757,0 -12.9961,6.80664 -12.9961,6.80664 l -9.28515,-4.95117 -9.90235,6.18945 -11.14062,-2.47461 c 0,0 -6.80773,4.94965 -9.90235,6.1875 -3.09461,1.23785 -9.90234,1.85742 -9.90234,1.85742 l -3.0957,6.18946 -4.95117,-6.18946 -6.8086,-3.09375 -1.85547,-8.04687 -5.57031,4.33203 c 0,0 -2.47548,4.33399 -4.95117,4.33399 -2.4757,0 -7.42774,-5.57032 -7.42774,-5.57032 l -5.57031,-5.57031 -0.61914,5.57031 c 0,0 -1.85676,4.33225 -5.57031,4.95117 -3.71354,0.61893 -1.85742,8.04493 -1.85742,8.04493 0,0 -4.33203,-3.09463 -4.33203,-5.57032 0,-2.4757 -1.23829,-8.66406 -1.23829,-8.66406 l -2.4746,0.61914 -8.66602,4.95117 c 0,0 -3.71289,-1.85678 -3.71289,-5.57031 0,-3.71355 -6.18945,-2.47656 -6.18945,-2.47656 l -6.18946,-2.47461 -12.99609,9.2832 -3.0957,-8.66406 -8.66407,-7.42773 4.33204,-4.95118 -9.90235,2.47461 -6.80859,-3.09375 -10.52149,5.57032 -6.18945,-5.57032 c 0,0 -12.99697,1.85742 -15.47266,1.85742 -2.4757,0 -6.18945,-7.42773 -6.18945,-7.42773 l -12.37891,1.85742 -4.33203,-13.61719 -2.47656,-4.33203 -8.04492,3.09375 -6.18945,-1.85546 -0.61914,3.09374 -8.04688,1.85743 -11.75977,-14.23633 -8.66406,-1.23828 0.61914,-139.8769605 z m 341.41016,699.9629005 5.70508,9.08984 -4.44141,-15.53906 -2.66211,-8.43555 -4.88476,-15.53906 v -18.20313 l -1.33204,-8.8789 -2.21875,1.77539 v 10.65429 11.54492 l 3.10743,10.21094 6.21484,19.08985 z m -6.72656,-4.67383 c 0,0 -0.28445,1.11355 -0.67969,2.46679 l -1.04102,-2.30273 c 0.95098,-0.0306 1.72071,-0.16406 1.72071,-0.16406 z"
         style="fill:#e9857a;fill-opacity:0.99134198;fill-rule:evenodd;stroke:none;stroke-width:11.33858299;stroke-linecap:butt;stroke-linejoin:miter;stroke-miterlimit:4;stroke-dasharray:none;stroke-opacity:1" />
      <path
         d="m -557.16992,17.902344 -0.58985,305.724606 a 15.528792,15.528792 0 0 1 -15.57226,15.49805 l -174.66406,-0.51172 a 15.528792,15.528792 0 0 1 -1.08008,6.96289 c 0.2871,0.56139 0.55388,1.09971 0.97265,1.82813 0.18103,0.31487 0.19326,0.30492 0.37305,0.60742 l 8.16406,3.88281 a 15.528792,15.528792 0 0 1 4.07813,2.81641 c 0,0 3.61447,3.46287 7.10547,6.97656 1.7455,1.75685 3.42449,3.47297 4.91015,5.14258 0.0431,0.0485 0.10431,0.13873 0.14649,0.18554 0.33209,0.15526 0.49183,0.23651 0.83789,0.39649 2.8787,1.33082 6.05078,2.75195 6.05078,2.75195 a 15.528792,15.528792 0 0 1 8.71484,10.40039 l -4,-1.29687 a 15.528792,15.528792 0 0 1 4.15821,2.08008 15.528792,15.528792 0 0 1 0.27343,1.92382 l -0.12304,-1.80664 a 15.528792,15.528792 0 0 1 3.02344,2.86914 c 0,0 1.73602,2.03887 3.125,3.67188 2.36727,0.36393 4.07511,0.90421 5.46484,1.42383 3.75006,1.40213 6.61133,3.01758 6.61133,3.01758 a 15.528792,15.528792 0 0 1 2.39257,1.59375 l 7.79102,6.31054 a 15.528792,15.528792 0 0 1 1.88477,1.81055 l 10.52148,11.96094 a 15.528792,15.528792 0 0 1 3.6875,7.89257 l 1.33789,8.6875 4.73438,4.72071 a 15.528792,15.528792 0 0 1 4.49218,12.46484 l -1.03711,10.89258 c 0.0956,0.28396 0.0951,0.25429 0.19336,0.55469 0.24311,0.74329 0.48872,1.61014 0.73438,2.45508 -0.40483,-0.65422 -0.79464,-0.98082 -1.10938,-1.10352 l -0.0215,0.23633 c 0.10114,0.0946 0.039,0.0399 0.16016,0.14453 0.44538,0.38464 0.59342,0.47647 0.99023,0.78516 0.11167,0.38582 0.22545,0.70581 0.33398,1.11718 0.16992,0.64401 0.38134,1.1569 0.55664,1.93946 -0.22695,-1.42492 -0.52506,-2.45417 -0.88281,-3.05078 0.44572,0.34655 1.11524,0.88671 1.11524,0.88671 a 15.528792,15.528792 0 0 1 6.26367,10.32618 c 0,0 0.14345,0.89357 0.24414,1.46484 l 7.40625,2.41992 a 15.528792,15.528792 0 0 1 8.99805,7.68164 l 2.26172,4.41602 2.61523,1.94336 5.0293,-0.0195 a 15.528792,15.528792 0 0 1 11.01367,4.52343 l 5.28906,5.26563 3.48047,0.71094 a 15.528792,15.528792 0 0 1 10.08398,7.02343 l 0.55079,0.88672 2.04687,0.90235 a 15.528792,15.528792 0 0 1 1.85352,-1.8418 l 6.21093,-5.1875 2.49805,-6.52734 3.48828,-11.74024 a 15.528792,15.528792 0 0 1 2.58203,-5.04883 l 9.09571,-11.81445 a 15.528792,15.528792 0 0 1 9.42382,-5.78516 l 7.24414,-1.36718 2.02344,-2.85352 a 15.528792,15.528792 0 0 1 20.40235,-4.47656 l 5.49218,3.15625 3.32032,0.21875 a 15.528792,15.528792 0 0 1 2.64257,0.40625 l 10.72852,2.60742 12.10156,-2.15039 a 15.528792,15.528792 0 0 1 6.85156,0.32226 l 7.15821,1.97852 a 15.528792,15.528792 0 0 1 8.41797,5.83008 l 5.54297,7.61523 a 15.528792,15.528792 0 0 1 0.0449,0.0645 l 6.0039,8.33593 7.75,5.78321 8.28907,4.25 a 15.528792,15.528792 0 0 1 6.62109,6.52148 l 4.35352,8.17969 5.27539,5.21484 a 15.528792,15.528792 0 0 1 4.52539,9.40625 l 0.45312,4.29102 1.86719,1.43359 a 15.528792,15.528792 0 0 1 5.52539,8.2461 l 2.32031,8.55664 4.04688,7.54882 a 15.528792,15.528792 0 0 1 0.75976,1.64258 l 4.15821,10.54883 a 15.528792,15.528792 0 0 1 0.20312,0.54492 l 0.43945,1.24805 7.94141,4.17187 a 15.528792,15.528792 0 0 1 8.25977,12.67579 l -1.65821,-0.81446 a 15.528792,15.528792 0 0 1 1.66406,0.96485 15.528792,15.528792 0 0 1 0.0352,1.38671 l 0.041,-1.33593 a 15.528792,15.528792 0 0 1 6.38476,8.77929 l 1.95899,7.06641 3.18554,2.58398 10.75977,5.48438 a 15.528792,15.528792 0 0 1 8.46484,13.25977 c 0,0 0.084,2.26889 0.21875,4.76367 0.13474,2.49477 0.74416,6.77934 0.28516,4.48437 0.48354,2.41776 0.636,4.23455 0.62305,5.73047 1.84212,3.27875 3.44951,8.54358 1.87695,13.85742 l 0.084,0.0469 c 0.054,-0.16783 0.13761,-0.27895 0.043,0.0234 l 2.15235,1.20899 a 15.528792,15.528792 0 0 1 6.72656,7.55469 l 3.37695,8.08593 a 15.528792,15.528792 0 0 1 1.19727,6.21485 l -0.0645,4.33203 3.4961,3.44531 a 15.528792,15.528792 0 0 1 4.57422,9.7461 l -0.45703,-5.38868 3.6289,0.15039 a 15.528792,15.528792 0 0 1 13.60938,9.34571 l -0.20313,-0.4668 3.01563,0.56055 a 15.528792,15.528792 0 0 1 3.55859,1.11914 l 9.28516,4.19922 a 15.528792,15.528792 0 0 1 2.06054,1.12695 l 6.88868,4.47656 11.56835,1.85352 7.90235,-0.78516 a 15.528792,15.528792 0 0 1 8.9043,1.78516 l 3.60156,1.94336 a 15.528792,15.528792 0 0 1 -1.48633,-2.5586 l -1.04102,-2.30273 a 15.528792,15.528792 0 0 1 -1.21484,-4.21875 15.528792,15.528792 0 0 1 -2.3418,-3.66602 l -10.83398,-24.00586 a 15.528792,15.528792 0 0 1 1.73242,-15.64453 15.528792,15.528792 0 0 1 -7.77148,-22.66406 l 0.23632,1.12695 a 15.528792,15.528792 0 0 1 -0.18945,-1.19726 15.528792,15.528792 0 0 1 6.73242,-5.91992 l -6.83007,3.03711 a 15.528792,15.528792 0 0 1 19.91601,-13.97852 l 1.00391,-0.86133 -1.81446,-1.45117 a 15.528792,15.528792 0 0 1 5.30079,-27.00391 15.528792,15.528792 0 0 1 6.52343,-11.99023 15.528792,15.528792 0 0 1 12.20118,-9.38477 l 4.58398,-0.625 -0.58984,0.5918 a 15.528792,15.528792 0 0 1 3.49023,-2.60937 15.528792,15.528792 0 0 1 9.46289,-15.35743 15.528792,15.528792 0 0 1 11.79492,-19.54882 l -2.88086,7.21093 a 15.528792,15.528792 0 0 1 6.46094,-7.53125 15.528792,15.528792 0 0 1 3.36914,0.48047 15.528792,15.528792 0 0 1 0.041,-0.0371 l -2.6543,-0.88476 a 15.528792,15.528792 0 0 1 7.36133,-1.77149 15.528792,15.528792 0 0 1 0.002,0 15.528792,15.528792 0 0 1 15.13867,2.74219 15.528792,15.528792 0 0 1 17.33594,3.05273 l 0.80273,-0.58789 a 15.528792,15.528792 0 0 1 11.73633,-2.79492 l 1.95313,0.32617 6.07617,-3.42187 a 15.528792,15.528792 0 0 1 6.99609,-1.96875 c 0.0131,-0.018 0.0106,-0.0134 0.0234,-0.0312 1.29577,-1.79429 2.37129,-3.35671 2.41211,-3.41602 a 15.528792,15.528792 0 0 1 0.0879,-1.55273 l 1.33203,-11.09961 a 15.528792,15.528792 0 0 1 9.01563,-12.2793 15.528792,15.528792 0 0 1 2.9707,-19.0332 l 0.043,-0.0391 c 0.33144,-2.10254 1.14772,-4.52928 3.06641,-7.21485 3.83256,-5.36438 11.30229,-7.22286 15.619136,-6.96289 a 15.528792,15.528792 0 0 1 16.431641,-2.27344 c 0,0 2.000338,0.87112 4.351562,2.36719 1.175613,0.74804 2.533474,1.62163 4.322266,3.41016 1.387331,1.38712 3.771875,3.5739 4.792969,7.98242 1.256044,-0.57322 2.578325,-1.17172 3.605468,-1.6543 0.190539,-0.0895 0.07554,-0.0328 0.267579,-0.12695 0.519815,-0.68483 0.990891,-1.28673 1.703125,-2.29687 a 15.528792,15.528792 0 0 1 13.128906,-6.5625 15.528792,15.528792 0 0 1 1.441406,-2.40235 l 4.623047,-6.30469 0.417969,-2.50976 v -14.1875 a 15.528792,15.528792 0 0 1 0.04492,-1.19141 l 0.574218,-7.45117 v -10.54492 a 15.528792,15.528792 0 0 1 4.080078,-10.49024 l 3.40625,-3.71679 1.177735,-10.20508 v -3.17578 l -2.367188,-1.57813 a 15.528792,15.528792 0 0 1 -6.230468,-17.48437 l 0.83789,-2.72266 -2.210937,-5.36914 a 15.528792,15.528792 0 0 1 -0.998047,-3.60742 l -1.425781,-9.50586 -5.416016,-9.48047 -6.103516,-7.76562 a 15.528792,15.528792 0 0 1 -3.318359,-9.68555 l 0.529297,-90.25977 a 15.528792,15.528792 0 0 1 -12.072266,-4.50586 l -3.960937,-3.96093 -2.31836,-1.60352 -1.875,0.15625 a 15.528792,15.528792 0 0 1 -13.080078,-5.36719 l 0.933594,1.08789 h -0.285156 a 15.528792,15.528792 0 0 1 -11.787109,-5.41992 l -3.18555,-3.71484 c -0.23238,-0.22779 -1.21619,-1.20051 -2.48633,-2.27539 -0.17401,-0.14727 -0.19961,-0.15293 -0.36523,-0.28516 0.037,0.0131 0.0911,0.0242 0.13086,0.0371 -0.0585,-0.0139 -0.0928,-0.0384 -0.15039,-0.0527 -0.49419,-0.39352 -1.05603,-0.83175 -1.0957,-0.85742 -0.0247,-0.016 -0.0824,0.29464 0.43164,0.625 -2.45635,-0.74184 -3.87184,-1.77139 -5.02735,-2.71094 -1.06114,0.65689 -2.68945,1.64258 -2.68945,1.64258 a 15.528792,15.528792 0 0 1 -15.74219,0.66406 l -1.36133,-0.72656 -2.28906,1.42968 a 15.528792,15.528792 0 0 1 -11.59766,1.99219 l -4.56054,-1.01367 c -1.85184,1.26695 -3.81007,2.56933 -7.34766,3.98437 -2.19506,0.87803 -3.96175,1.36731 -5.5039,1.68555 a 15.528792,15.528792 0 0 1 -25.38672,1.64453 l -2.63086,-3.28906 -1.94336,-0.88281 c -1.95678,0.75802 -4.25544,1.33593 -7.4375,1.33593 -3.32692,0 -5.48834,-0.55914 -7.10547,-1.26953 a 15.528792,15.528792 0 0 1 -22.96484,5.80274 c 0,0 -1.99248,-1.3829 -4.1211,-3.51172 -0.65239,-0.65246 -1.5342,-1.4145 -2.44531,-2.32031 a 15.528792,15.528792 0 0 1 -8.06445,-1.58008 c 0,0 -4.23512,-1.93635 -7.73829,-6.33399 l -5.3789,3.84375 a 15.528792,15.528792 0 0 1 -23.64649,-7.41015 l -1.70898,-4.78321 -4.5625,-3.91015 a 15.528792,15.528792 0 0 1 -2.86133,-0.96289 l 0.13867,0.0625 -3.77929,2 a 15.528792,15.528792 0 0 1 -17.65235,-2.18164 l -0.83398,-0.75 c -3.50216,0.47204 -5.44456,1.02343 -10.44141,1.02343 -8.3832,0 -11.07601,-3.79269 -12.99218,-5.70898 -0.18183,-0.18184 -0.20755,-0.29089 -0.375,-0.4668 l -2.89649,0.4336 a 15.528792,15.528792 0 0 1 -17.10156,-10.64844 l -1.22656,-3.85742 a 15.528792,15.528792 0 0 1 -2.14649,0.66211 l -8.04687,1.85742 a 15.528792,15.528792 0 0 1 -15.46289,-5.24024 l -7.9336,-9.60351 -2.7168,-0.38867 a 15.528792,15.528792 0 0 1 -13.33007,-15.43946 l 0.55078,-124.281246 z m 202.98633,151.220706 a 15.528792,15.528792 0 0 1 -4.78711,1.0039 l 0.39258,0.68555 z m 244.99804,32.14648 c -0.0792,0.0379 -0.27551,0.1525 -0.36914,0.19922 0.99971,-0.20546 0.81817,-0.41394 0.36914,-0.19922 z m -147.40625,1.20117 0.11133,0.0449 c -0.001,-0.002 -0.003,-0.004 -0.004,-0.006 a 15.528792,15.528792 0 0 1 -0.10742,-0.0391 z m 147.94532,4.97852 c 0.86628,0.24859 2.11259,0.46289 4.5039,0.46289 -1.75191,0 -3.23129,-0.17871 -4.5039,-0.46289 z m 64.291011,13.35937 a 15.528792,15.528792 0 0 1 -3.285156,6.875 L -45.75,227.7832 Z M -775.0957,318.76953 a 15.528792,15.528792 0 0 1 1.85156,0.77149 l 0.0781,-0.12696 z m 6.17773,2.06055 a 15.528792,15.528792 0 0 1 0.53125,2.2207 l 0.19336,0.0371 v -2.01562 z m 0.55078,2.38281 a 15.528792,15.528792 0 0 1 0.002,0.0215 15.528792,15.528792 0 0 1 0.17187,0.19531 v -0.008 z m 18.98438,21.11914 c -0.11547,-0.22695 -0.13616,0.0816 -0.11524,0.30859 a 15.528792,15.528792 0 0 1 0.0586,0.25391 c 0.0237,0.05 0.0948,0.17089 0.12304,0.22852 -0.0305,-0.12511 -0.0366,-0.73235 -0.0664,-0.79102 z m 28.50781,42.83985 c -0.0281,0.0424 -0.0573,0.0827 -0.0859,0.125 0.002,-0.002 0.0664,-0.0742 0.0664,-0.0742 -10e-6,0 0.0192,-0.0499 0.0195,-0.0508 z m -3.28906,3.6914 c -0.33353,0.27787 -0.66216,0.52213 -1.00586,0.76563 0.24949,-0.17525 0.44596,-0.22606 0.70508,-0.42969 0.10359,-0.0814 0.18338,-0.22841 0.30078,-0.33594 z m 25.55468,0.11914 c 0.84434,0.97998 3.24506,2.91476 0,0 z m -19.87304,4.47461 c -2.67883,3.59881 -2.95313,7.03389 -2.95313,8.71289 0,-2.47708 1.17048,-5.77996 2.95313,-8.71289 z m 64.42383,65.04688 c -0.058,-0.0664 0.14624,0.13135 0.15625,0.13867 l -0.0117,-0.084 c -0.0351,-0.0135 -0.12891,-0.0368 -0.14453,-0.0547 z m 591.044918,12.09375 c -0.533639,0.47951 -0.529794,0.64363 -0.578125,0.73828 0.09521,-0.1152 0.16455,-0.19576 0.355469,-0.4375 0.05031,-0.0637 0.167407,-0.23004 0.222656,-0.30078 z m -51.736328,19.82617 -0.60547,1.96875 a 15.528792,15.528792 0 0 1 0.16406,-0.0391 15.528792,15.528792 0 0 1 0.44141,-1.92969 z m -1.56836,5.10156 -0.30859,1.00391 1.38086,0.78906 a 15.528792,15.528792 0 0 1 -0.0859,-0.70508 15.528792,15.528792 0 0 1 -0.98633,-1.08789 z m -11.76367,25.54297 c -0.26301,0.0403 -0.71239,0.27703 -1.23242,0.59961 a 15.528792,15.528792 0 0 1 0.32031,0.01 c 0,0 0.54733,0.007 1.02539,-0.006 a 15.528792,15.528792 0 0 1 -0.11328,-0.60352 z m -102.68555,59.9707 -1.4668,1.32032 -0.0312,0.96289 2.8496,2.26757 a 15.528792,15.528792 0 0 1 1.21875,0.34571 c 0.23951,-0.33604 0.44772,-0.66212 0.6875,-0.9961 0.13851,-0.19291 0.13541,-0.18158 0.27344,-0.37304 z m -11.69531,18.69532 0.14062,1.27148 2.73829,0.39062 a 15.528792,15.528792 0 0 1 -0.34961,-0.44336 15.528792,15.528792 0 0 1 -2.5293,-1.21874 z m -4.35742,9.75781 c -1.40589,1.1281 -1.66811,-0.66912 -2.01172,1.07422 a 15.528792,15.528792 0 0 1 2.01172,-1.07422 z m -3.83594,7.21875 -0.0664,0.0332 a 15.528792,15.528792 0 0 1 0.59375,0.38281 l -0.11328,-0.11328 z m -14.33398,45.125 -1.12696,1.50195 0.89844,1.4375 a 15.528792,15.528792 0 0 1 0.38867,-1.58984 15.528792,15.528792 0 0 1 -0.16015,-1.34961 z m 3.55859,16.30859 c 0.28399,1.13022 -0.037,1.22633 0.56445,1.46094 l -0.0625,-0.16602 a 15.528792,15.528792 0 0 1 -0.37695,-1.16211 15.528792,15.528792 0 0 1 -0.125,-0.13281 z"
         inkscape:href="#path3816"
         id="path5052"
         style="fill:#7b8145;fill-opacity:1;fill-rule:evenodd;stroke:none;stroke-width:11.33858299;stroke-linecap:butt;stroke-linejoin:miter;stroke-miterlimit:4;stroke-dasharray:none;stroke-opacity:1"
         xlink:href="#path3816"
         inkscape:original="M -572.66797 2.375 L -573.28711 323.59766 L -784.95898 322.97852 L -783.7207 325.45508 L -783.7207 332.26172 L -780.00781 333.5 L -776.91406 337.21484 L -763.44336 339.82422 L -776.34766 338.45117 L -764.58594 348.22461 C -764.58594 350.88846 -758.54492 360.06445 -758.54492 360.06445 L -746.23438 365.91797 C -746.23438 365.91797 -732.11863 379.45375 -733.89453 379.00977 C -735.67043 378.5658 -722.78125 384.33594 -722.78125 384.33594 L -722.24219 392.18164 L -716.50977 394.03906 C -716.50977 394.03906 -705.9082 407.27774 -705.9082 404.16992 C -705.9082 401.06211 -696.57031 406.10742 -696.57031 406.10742 L -688.7793 412.41797 L -678.25781 424.37891 L -676.14453 438.10156 L -667.80469 446.41797 L -669.16211 460.67969 C -669.16211 460.67969 -666.73828 467.20262 -666.73828 468.97852 C -666.73828 470.75441 -660.41406 475.32813 -660.41406 475.32812 C -660.41406 475.32812 -659.72852 479.99497 -659.72852 482.21484 C -659.72852 484.43471 -654.78906 487.61133 -654.78906 487.61133 L -642.22266 491.7168 L -638.30859 499.35938 L -628.63477 506.54492 L -618.4375 506.50586 L -609.85352 515.05078 L -601.82031 516.69141 L -598.73828 521.65625 L -588.70117 526.08398 L -580.37305 527.68359 L -574.22266 520.36523 L -564.91211 512.58789 L -560.75391 501.72852 L -557.0957 489.41797 L -548 477.60352 L -534.59766 475.07422 L -528.94727 467.10938 L -520.33398 472.06055 L -513.41992 472.51758 L -499.52148 475.89453 L -484.20898 473.17578 L -477.05078 475.1543 L -471.50781 482.76953 L -464.10742 493.04688 L -453.39648 501.03906 L -443.95117 505.88281 L -438.48828 516.14844 L -431.53125 523.02539 L -430.375 533.93555 L -423.23047 539.42578 L -420.44531 549.69141 L -415.5625 558.80078 L -411.4043 569.34961 L -408.94141 576.35742 L -395.59375 583.36719 L -395.84961 591.87109 L -388.61133 595.42188 L -385.32812 607.27539 L -377.01367 614.01758 L -364.79688 620.24609 C -364.79688 620.24609 -364.44593 629.74497 -364.00195 631.96484 C -363.55799 634.18471 -366.10156 639.48438 -366.10156 639.48438 C -366.10156 639.48438 -360.18236 641.79966 -361.07031 644.01953 C -361.95827 646.23941 -362.64453 657.12305 -362.64453 657.12305 L -351.59766 663.32617 L -348.2207 671.41211 L -348.38281 682.37695 L -340.16211 690.47852 L -339.46289 698.72656 L -322.1582 699.44141 L -319.07617 706.56055 L -307.93555 708.63281 L -298.65234 712.83203 L -289.00586 719.10156 L -272.20117 721.79297 L -262.29688 720.80859 L -251.84375 726.44531 L -242.37109 734.26172 L -234.21875 726.90039 L -225.55273 729.18555 L -229.57617 720.27148 L -229.99414 712.75977 L -231.25781 702.33789 L -244.22461 681.67188 L -242.86914 685.23242 C -242.86914 685.23242 -243.09129 687.45416 -243.25781 689.95312 L -254.0918 665.94727 L -244.22461 681.67188 L -246.41992 675.91016 L -247.30859 671.02539 L -249.97266 669.69336 L -247.30859 666.14258 L -249.52734 662.58984 L -248.64062 656.81836 L -245.5332 651.04688 L -245.97656 644.83203 L -250.85938 644.38672 L -261.07227 642.16797 L -257.07617 640.39062 L -258.85156 631.95508 L -252.19141 636.83984 L -247.75195 634.61914 L -244.20117 639.05859 L -246.86523 631.06836 L -240.64844 625.74023 L -234.43359 623.07617 L -233.54492 615.5293 L -237.09766 610.20117 L -241.0918 606.20508 L -245.5332 602.6543 L -233.10156 602.6543 L -231.32422 604.42969 L -222.44531 596.4375 L -219.78125 588.44727 L -227.77344 593.33008 L -228.2168 589.33398 L -234.43359 588.44727 L -225.10938 584.00586 L -229.10547 581.78711 L -219.33789 580.45508 L -216.23047 577.34766 L -213.12305 586.22656 L -214.89844 593.77344 L -222.00195 603.09766 L -230.4375 618.19336 L -236.20898 629.73633 L -238.87305 641.72266 C -238.87305 641.72266 -235.76563 643.49918 -235.76562 641.2793 C -235.76562 639.05943 -230.88086 622.63281 -230.88086 622.63281 C -230.88086 622.63281 -221.11328 607.53762 -221.11328 605.76172 C -221.11328 603.98582 -208.68164 587.55859 -208.68164 587.55859 L -201.13477 581.3418 L -208.23828 580.45508 L -206.01953 576.01562 L -206.01953 570.24414 L -208.23828 562.69531 C -208.23828 562.69531 -200.24609 561.36484 -200.24609 564.47266 C -200.24609 567.58048 -198.4707 572.90625 -198.4707 572.90625 L -194.91992 572.90625 L -196.69531 578.67969 C -196.69531 578.67969 -192.25638 572.90759 -190.48047 573.35156 C -188.70458 573.79554 -181.15625 572.01953 -181.15625 572.01953 L -186.03906 568.02344 C -186.03906 568.02344 -192.69922 572.46268 -192.69922 569.79883 C -192.69922 567.13499 -186.03906 564.02734 -186.03906 564.02734 L -191.81055 555.5918 L -198.4707 555.5918 L -197.13867 549.37695 L -199.35938 544.04883 L -192.69922 546.26953 L -190.92383 541.82812 L -192.69922 549.37695 L -188.25977 550.26367 C -188.25977 550.26367 -189.1475 556.48047 -185.5957 556.48047 C -182.0439 556.48047 -183.82031 551.15234 -183.82031 551.15234 L -185.5957 546.71289 L -185.5957 540.94141 L -180.71289 547.15625 L -177.16016 552.92773 L -169.16797 543.16016 L -171.83203 553.81641 L -162.50977 550.70898 L -154.96094 548.93164 L -148.30273 544.04883 L -142.97461 544.9375 L -172.7207 559.14453 L -168.72461 560.91992 L -130.09961 539.16602 C -130.09961 539.16602 -123.88331 539.60987 -122.10742 537.83398 C -120.33153 536.05807 -115.44727 528.95312 -115.44727 528.95312 C -115.44727 528.95312 -107.0114 517.41016 -103.01562 517.41016 C -99.019864 517.41016 -87.921875 507.19922 -87.921875 507.19922 L -94.136719 509.41797 L -101.24023 516.07812 L -112.7832 520.51758 L -111.45117 509.41797 C -111.45117 509.41797 -101.68421 514.30323 -101.24023 512.52734 C -100.79626 510.75143 -97.689453 506.31055 -97.689453 506.31055 C -97.689453 506.31055 -92.360708 508.53042 -92.804688 506.31055 C -93.248648 504.09069 -93.25 498.32031 -93.25 498.32031 L -99.908203 496.98828 L -98.132812 491.2168 L -104.34766 487.66406 L -98.576172 482.33594 C -98.576172 482.33594 -101.2399 477.00914 -97.244141 477.45312 C -93.248361 477.89709 -96.356376 481.44922 -91.472656 481.44922 C -86.588936 481.44922 -86.146484 473.90039 -86.146484 473.90039 C -86.146484 473.90039 -81.261719 476.12059 -81.261719 477.89648 C -81.261719 479.67239 -82.150391 488.10742 -82.150391 488.10742 L -86.146484 491.66016 L -70.607422 491.2168 L -86.589844 500.0957 L -69.71875 492.10352 C -69.71875 492.10352 -54.624167 485.44521 -52.404297 484.11328 C -52.224742 484.00554 -50.448473 481.88375 -47.988281 478.39453 L -32.347656 481.42383 L -34.824219 474.61523 L -33.585938 469.66406 L -26.777344 460.37891 L -25.539062 452.95312 L -25.539062 437.48047 L -24.919922 429.43359 L -24.919922 418.29297 L -18.113281 410.86523 L -16.255859 394.77344 L -16.255859 382.39453 L -25.539062 376.20703 L -23.064453 368.16016 L -27.396484 357.63867 L -29.253906 345.25977 L -36.679688 332.26172 L -43.488281 323.59766 L -42.869141 217.76172 L -46.582031 212.19141 L -58.341797 211.57227 L -59.580078 217.76172 L -64.53125 212.81055 L -72.578125 207.24023 L -80.003906 207.85938 L -83.71875 203.52539 L -91.144531 203.52539 L -94.859375 199.19336 C -94.859375 199.19336 -101.66689 192.38477 -104.14258 192.38477 C -106.61828 192.38477 -110.3329 186.19727 -112.80859 186.19727 C -115.28429 186.19727 -125.80469 193.00391 -125.80469 193.00391 L -135.08984 188.05273 L -144.99219 194.24219 L -156.13281 191.76758 C -156.13281 191.76758 -162.94054 196.71723 -166.03516 197.95508 C -169.12977 199.19293 -175.9375 199.8125 -175.9375 199.8125 L -179.0332 206.00195 L -183.98438 199.8125 L -190.79297 196.71875 L -192.64844 188.67188 L -198.21875 193.00391 C -198.21875 193.00391 -200.69423 197.33789 -203.16992 197.33789 C -205.64562 197.33789 -210.59766 191.76758 -210.59766 191.76758 L -216.16797 186.19727 L -216.78711 191.76758 C -216.78711 191.76758 -218.64387 196.09983 -222.35742 196.71875 C -226.07096 197.33768 -224.21484 204.76367 -224.21484 204.76367 C -224.21484 204.76367 -228.54688 201.66905 -228.54688 199.19336 C -228.54688 196.71766 -229.78516 190.5293 -229.78516 190.5293 L -232.25977 191.14844 L -240.92578 196.09961 C -240.92578 196.09961 -244.63867 194.24283 -244.63867 190.5293 C -244.63867 186.81575 -250.82812 188.05273 -250.82812 188.05273 L -257.01758 185.57812 L -270.01367 194.86133 L -273.10938 186.19727 L -281.77344 178.76953 L -277.44141 173.81836 L -287.34375 176.29297 L -294.15234 173.19922 L -304.67383 178.76953 L -310.86328 173.19922 C -310.86328 173.19922 -323.86025 175.05664 -326.33594 175.05664 C -328.81164 175.05664 -332.52539 167.62891 -332.52539 167.62891 L -344.9043 169.48633 L -349.23633 155.86914 L -351.71289 151.53711 L -359.75781 154.63086 L -365.94727 152.77539 L -366.56641 155.86914 L -374.61328 157.72656 L -386.37305 143.49023 L -395.03711 142.25195 L -394.41797 2.375 L -572.66797 2.375 z M -231.25781 702.33789 L -225.55273 711.42773 L -229.99414 695.88867 L -232.65625 687.45312 L -237.54102 671.91406 L -237.54102 653.71094 L -238.87305 644.83203 L -241.0918 646.60742 L -241.0918 657.26172 L -241.0918 668.80664 L -237.98438 679.01758 L -231.76953 698.10742 L -231.25781 702.33789 z M -237.98438 697.66406 C -237.98438 697.66406 -238.26882 698.77762 -238.66406 700.13086 L -239.70508 697.82812 C -238.7541 697.79752 -237.98437 697.66406 -237.98438 697.66406 z "
         inkscape:radius="-15.527239"
         sodipodi:type="inkscape:offset" />
    </g>
  </g>
</svg>
