<?xml version="1.0" encoding="UTF-8" standalone="no"?>
<!-- Created with Inkscape (http://www.inkscape.org/) -->
<svg
   xmlns:dc="http://purl.org/dc/elements/1.1/"
   xmlns:cc="http://web.resource.org/cc/"
   xmlns:rdf="http://www.w3.org/1999/02/22-rdf-syntax-ns#"
   xmlns:svg="http://www.w3.org/2000/svg"
   xmlns="http://www.w3.org/2000/svg"
   xmlns:sodipodi="http://sodipodi.sourceforge.net/DTD/sodipodi-0.dtd"
   xmlns:inkscape="http://www.inkscape.org/namespaces/inkscape"
   width="770"
   height="768"
   id="svg2"
   sodipodi:version="0.32"
   inkscape:version="0.44.1"
   version="1.0"
   sodipodi:docbase="/home/thomas/Desktop"
   sodipodi:docname="Texas_blank_map.svg">
  <defs
     id="defs4" />
  <sodipodi:namedview
     id="base"
     pagecolor="#ffffff"
     bordercolor="#666666"
     borderopacity="1.0"
     gridtolerance="10000"
     guidetolerance="10"
     objecttolerance="10"
     inkscape:pageopacity="0.0"
     inkscape:pageshadow="2"
     inkscape:zoom="1.0052083"
     inkscape:cx="385"
     inkscape:cy="463.58549"
     inkscape:document-units="px"
     inkscape:current-layer="layer1"
     inkscape:window-width="1280"
     inkscape:window-height="963"
     inkscape:window-x="0"
     inkscape:window-y="0" />
  <metadata
     id="metadata7">
    <rdf:RDF>
      <cc:Work
         rdf:about="">
        <dc:format>image/svg+xml</dc:format>
        <dc:type
           rdf:resource="http://purl.org/dc/dcmitype/StillImage" />
      </cc:Work>
    </rdf:RDF>
  </metadata>
  <g
     inkscape:label="Layer 1"
     inkscape:groupmode="layer"
     id="layer1"
     transform="translate(-0.714286,3.066389)">
    <path
       style="fill:#ccc;fill-rule:evenodd;stroke:black;stroke-width:1px;stroke-linecap:butt;stroke-linejoin:miter;stroke-opacity:1;fill-opacity:1"
       d="M 0.45746195,347.13501 L 26.990255,346.67755 L 24.245483,341.18801 L 20.128326,340.73054 L 20.128326,334.32608 L 19.213402,331.5813 L 217.75189,330.66638 L 217.75189,32.401192 L 221.86904,32.401192 L 220.95412,-0.53606808 L -0.45746195,-0.078606137"
       id="path17082"
       transform="translate(0.714286,-3.066389)" />
    <g
       id="g12648"
       style="fill:#fff6d5;fill-opacity:1;stroke:none">
      <path
         transform="translate(0.714286,-3.066389)"
         id="path12642"
         d="M 543.59108,713.05818 L 535.4677,710.91518 L 527.82399,717.8162 L 518.94397,710.48815 L 509.14332,705.20411 L 499.85946,706.12634 L 484.10474,703.60423 L 475.06071,697.72599 L 466.35709,693.78962 L 455.91274,691.84618 L 453.02391,685.17261 L 436.80189,684.5026 L 436.14583,676.76913 L 428.43867,669.1749 L 428.59032,658.89459 L 425.42452,651.31431 L 415.06837,645.49953 C 415.06837,645.49953 415.71205,635.29502 416.54451,633.21389 C 417.37696,631.13276 411.82676,628.96343 411.82676,628.96343 C 411.82676,628.96343 414.21117,623.99347 413.79495,621.91234 C 413.37872,619.83121 413.05068,610.92645 413.05068,610.92645 L 401.5975,605.08691 L 393.80215,598.7677 L 390.72455,587.65492 L 383.93805,584.32511 L 384.17788,576.35338 L 371.66478,569.78195 L 369.35619,563.21053 L 365.45851,553.32168 L 360.88003,544.78207 L 358.26973,535.1578 L 351.57141,530.01145 L 350.48675,519.78219 L 343.96483,513.33609 L 338.84322,503.71182 L 329.98796,499.17045 L 319.94746,491.67838 L 313.00931,482.04174 L 307.81189,474.90246 L 301.1012,473.04879 L 286.7468,475.59721 L 273.71691,472.43142 L 267.23368,472.00282 L 259.1598,467.36089 L 253.8618,474.82822 L 241.29763,477.20025 L 232.77039,488.27591 L 229.34002,499.8173 L 225.44234,509.99706 L 216.71397,517.28798 L 210.94867,524.15031 L 203.14095,522.64942 L 193.7302,518.49955 L 190.84136,513.84523 L 183.31059,512.30565 L 175.26304,504.29521 L 165.70221,504.33233 L 156.63344,497.59532 L 152.96322,490.42971 L 141.18201,486.58153 C 141.18201,486.58153 136.55245,483.6045 136.55245,481.52337 C 136.55245,479.44224 135.90876,475.06647 135.90876,475.06647 C 135.90876,475.06647 129.97945,470.7789 129.97945,469.114 C 129.97945,467.44909 127.70798,461.33259 127.70798,461.33259 L 128.9814,447.96229 L 121.16131,440.16694 L 119.18075,427.30106 L 109.31664,416.08771 L 102.01334,410.17235 C 102.01334,410.17235 93.258639,405.44222 93.258639,408.3558 C 93.258639,411.26938 83.318719,398.85685 83.318719,398.85685 L 77.944906,397.11613 L 77.440479,389.76175 C 77.440479,389.76175 65.355977,384.35082 67.020887,384.76704 C 68.685787,385.18327 55.453174,372.49377 55.453174,372.49377 L 43.911786,367.00701 C 43.911786,367.00701 38.248647,358.40396 38.248647,355.9066 L 27.220664,346.74357 L 395.97698,385.9701"
         style="fill:#fff6d5;fill-rule:evenodd;stroke:none;stroke-width:2;stroke-linecap:butt;stroke-linejoin:miter;stroke-opacity:1;fill-opacity:1;stroke-miterlimit:4;stroke-dasharray:none"
         sodipodi:nodetypes="cccccccccccccccccscsccccccccccccccccccccccccccccccccccccccccscsccccccscccsccccc" />
      <path
         id="path12644"
         d="M 366.02535,409.24471 L 544.30537,693.34275 L 540.14311,678.77484 L 537.64575,670.86655 L 533.06727,656.29864 L 533.06727,639.23338 L 531.81859,630.90886 L 529.73746,632.57376 L 529.73746,642.56318 L 529.73746,653.38506 L 532.65104,662.95825 L 538.4782,680.85597 L 540.14311,694.59143 L 540.55933,702.08349 L 537.22953,701.66727 L 533.48349,692.92652 L 534.73217,690.01294 C 534.73217,690.01294 530.15368,687.93181 530.98614,685.85068 C 531.81859,683.76955 532.65104,680.43974 532.65104,680.43974 C 532.65104,680.43974 528.07255,681.2722 527.65633,679.19107 C 527.2401,677.10994 528.07255,668.78542 528.07255,668.78542 L 524.74275,660.04467 L 523.9103,655.46619 L 521.41294,654.21751 L 523.9103,650.8877 L 521.82917,647.5579 L 522.66162,642.14696 L 525.5752,636.73602 L 525.15897,630.90886 L 520.58049,630.49263 L 511.00729,628.4115 L 514.75332,626.7466 L 513.08842,618.83831 L 519.33181,623.41679 L 523.49407,621.33566 L 526.82388,625.49792 L 524.32652,618.00585 L 530.15368,613.01114 L 535.98085,610.51379 L 536.8133,603.43795 L 533.48349,598.44323 L 529.73746,594.6972 L 525.5752,591.36739 L 537.22953,591.36739 L 538.89443,593.0323 L 547.21895,585.54023 L 549.7163,578.04816 L 542.22424,582.62665 L 541.80801,578.88062 L 535.98085,578.04816 L 544.72159,573.8859 L 540.97556,571.80477 L 550.13253,570.5561 L 553.04611,567.64251 L 555.95969,575.96703 L 554.29479,583.04287 L 547.63517,591.78362 L 539.72688,605.9353 L 534.31594,616.75718 L 531.81859,627.99528 C 531.81859,627.99528 534.73217,629.66018 534.73217,627.57905 C 534.73217,625.49792 539.31066,610.09756 539.31066,610.09756 C 539.31066,610.09756 548.46763,595.94588 548.46763,594.28098 C 548.46763,592.61607 560.12195,577.21571 560.12195,577.21571 L 567.19779,571.38855 L 560.53818,570.5561 L 562.61931,566.39384 L 562.61931,560.9829 L 560.53818,553.90706 C 560.53818,553.90706 568.03024,552.65838 568.03024,555.57196 C 568.03024,558.48554 569.69515,563.48026 569.69515,563.48026 L 573.02496,563.48026 L 571.36005,568.89119 C 571.36005,568.89119 575.52231,563.48026 577.18722,563.89648 C 578.85212,564.31271 585.92796,562.6478 585.92796,562.6478 L 581.34947,558.90177 C 581.34947,558.90177 575.10609,563.06403 575.10609,560.56667 C 575.10609,558.06932 581.34947,555.15574 581.34947,555.15574 L 575.93854,547.24744 L 569.69515,547.24744 L 570.94383,541.42028 L 568.8627,536.42557 L 575.10609,538.5067 L 576.77099,534.34444 L 575.10609,541.42028 L 579.26835,542.25273 C 579.26835,542.25273 578.43589,548.0799 581.7657,548.0799 C 585.09551,548.0799 583.4306,543.08518 583.4306,543.08518 L 581.7657,538.92293 L 581.7657,533.51199 L 586.34419,539.33915 L 589.67399,544.75009 L 597.16606,535.59312 L 594.6687,545.58254 L 603.40945,542.66896 L 610.48529,541.00405 L 616.72868,536.42557 L 621.72339,537.25802 L 593.83625,550.57725 L 597.58229,552.24216 L 633.79394,531.84708 C 633.79394,531.84708 639.62111,532.26331 641.28601,530.59841 C 642.95091,528.9335 647.5294,522.27389 647.5294,522.27389 C 647.5294,522.27389 655.43769,511.45201 659.18373,511.45201 C 662.92976,511.45201 673.33541,501.87882 673.33541,501.87882 L 667.50824,503.95995 L 660.84863,510.20334 L 650.02675,514.36559 L 651.27543,503.95995 C 651.27543,503.95995 660.4324,508.53843 660.84863,506.87353 C 661.26486,505.20862 664.17844,501.04636 664.17844,501.04636 C 664.17844,501.04636 669.17315,503.12749 668.75692,501.04636 C 668.3407,498.96524 668.3407,493.5543 668.3407,493.5543 L 662.09731,492.30562 L 663.76221,486.89468 L 657.93505,483.56488 L 663.34598,478.57016 C 663.34598,478.57016 660.84863,473.57545 664.59466,473.99168 C 668.3407,474.4079 665.42711,477.73771 670.0056,477.73771 C 674.58409,477.73771 675.00031,470.66187 675.00031,470.66187 C 675.00031,470.66187 679.5788,472.743 679.5788,474.4079 C 679.5788,476.07281 678.74634,483.9811 678.74634,483.9811 L 675.00031,487.31091 L 689.56822,486.89468 L 674.58409,495.2192 L 690.40067,487.72713 C 690.40067,487.72713 704.55235,481.48375 706.63348,480.23507 C 707.67404,479.61073 765.5272,407.64552 682.85078,397.51515 C 600.17436,387.38479 366.02535,409.24471 366.02535,409.24471 z "
         style="fill:#fff6d5;fill-opacity:1;fill-rule:evenodd;stroke:none;stroke-width:1px;stroke-linecap:butt;stroke-linejoin:miter;stroke-opacity:1"
         sodipodi:nodetypes="cccccccccccccccccscsccccccccccccccccccccccccccccccccccccccccscsccccccscccsccscccccccccsccccccccccccccscscccccscscccccsscscccccssc" />
      <path
         style="fill:#fff6d5;fill-rule:evenodd;stroke:none;stroke-width:2;stroke-linecap:butt;stroke-linejoin:miter;stroke-opacity:1;stroke-miterlimit:4;stroke-dasharray:none;fill-opacity:1"
         d="M 26.691109,345.58418 L 23.789902,342.10273 L 20.308453,340.94225 L 20.308453,334.55959 L 19.14797,332.23863 L 217.59057,332.81887 L 218.17081,31.673527 L 385.28036,31.673527 L 384.70012,162.80811 L 392.8235,163.96859 L 403.84809,177.31415 L 411.39123,175.57342 L 411.97147,172.67221 L 417.77389,174.41294 L 425.31702,171.51173 L 427.63799,175.57342 L 431.69968,188.33873 L 443.30451,186.59801 C 443.30451,186.59801 446.78596,193.56091 449.10693,193.56091 C 451.42789,193.56091 463.61296,191.82018 463.61296,191.82018 L 469.41538,197.04236 L 479.27948,191.82018 L 485.66214,194.72139 L 494.94601,192.40042 L 490.88432,197.04236 L 499.0077,204.00526 L 501.9089,212.12864 L 514.09398,203.42501 L 519.89639,205.74598 C 519.89639,205.74598 525.69881,204.5855 525.69881,208.06695 C 525.69881,211.54839 529.18025,213.28912 529.18025,213.28912 L 537.30364,208.64719 L 539.6246,208.06695 C 539.6246,208.06695 540.78508,213.86936 540.78508,216.19033 C 540.78508,218.51129 544.84678,221.4125 544.84678,221.4125 C 544.84678,221.4125 543.10605,214.4496 546.5875,213.86936 C 550.06895,213.28912 551.80967,209.22743 551.80967,209.22743 L 552.38991,204.00526 L 557.61209,209.22743 C 557.61209,209.22743 562.25402,214.4496 564.57499,214.4496 C 566.89595,214.4496 569.21692,210.38791 569.21692,210.38791 L 574.43909,206.32622 L 576.17982,213.86936 L 582.56247,216.77057 L 587.20441,222.57298 L 590.10561,216.77057 C 590.10561,216.77057 596.48827,216.19033 599.38948,215.02984 C 602.29068,213.86936 608.67334,209.22743 608.67334,209.22743 L 619.11769,211.54839 L 628.40155,205.74598 L 637.10517,210.38791 C 637.10517,210.38791 646.96928,204.00526 649.29025,204.00526 C 651.61121,204.00526 655.09266,209.80767 657.41363,209.80767 C 659.73459,209.80767 666.11725,216.19033 666.11725,216.19033 L 669.5987,220.25202 L 676.5616,220.25202 L 680.04305,224.31371 L 687.00594,223.73347 L 694.54908,228.95564 L 699.19102,233.59757 L 700.3515,227.79516 L 711.37609,228.3754 L 714.85754,233.59757 L 714.2773,332.81887 L 720.65995,340.94225 L 727.62285,353.12732 L 729.36357,364.73215 L 733.42527,374.59626 L 731.1043,382.1394 L 739.80792,387.94181 L 739.80792,399.54664 L 738.0672,414.63292 L 731.68454,421.59582 L 731.68454,432.04017 L 731.1043,439.58331 L 731.1043,454.08934 L 729.94382,461.05224 L 723.56116,469.75587 L 722.40068,474.3978 L 724.72164,480.78045"
         id="path12646"
         transform="translate(0.714286,-3.066389)" />
    </g>
    <path
       style="fill:#a0c6e9;fill-opacity:1;fill-rule:evenodd;stroke:none;stroke-width:1px;stroke-linecap:butt;stroke-linejoin:miter;stroke-opacity:1"
       d="M 516.25597,763.68493 L 516.25597,758.27399 L 512.92616,757.85777 L 517.92087,754.11174 C 517.92087,754.11174 509.59635,750.78193 512.09371,750.3657 C 514.59107,749.94948 516.25597,749.53325 516.25597,749.53325 L 514.59107,746.20344 L 517.92087,742.04118 L 523.33181,747.86835 L 526.24539,748.28457 L 525.41294,743.70609 L 524.58049,738.29515 L 528.32652,737.87892 L 529.15897,742.87364 L 532.48878,747.03589 L 527.07784,764.93361 C 527.07784,764.93361 535.40236,747.03589 536.23481,744.95476 C 537.06727,742.87364 544.97556,724.97592 544.97556,724.97592 L 548.30537,709.99179 L 548.30537,693.34275 L 544.14311,678.77484 L 541.64575,670.86655 L 537.06727,656.29864 L 537.06727,639.23338 L 535.81859,630.90886 L 533.73746,632.57376 L 533.73746,642.56318 L 533.73746,653.38506 L 536.65104,662.95825 L 542.4782,680.85597 L 544.14311,694.59143 L 544.55933,702.08349 L 541.22953,701.66727 L 537.48349,692.92652 L 538.73217,690.01294 C 538.73217,690.01294 534.15368,687.93181 534.98614,685.85068 C 535.81859,683.76955 536.65104,680.43974 536.65104,680.43974 C 536.65104,680.43974 532.07255,681.2722 531.65633,679.19107 C 531.2401,677.10994 532.07255,668.78542 532.07255,668.78542 L 528.74275,660.04467 L 527.9103,655.46619 L 525.41294,654.21751 L 527.9103,650.8877 L 525.82917,647.5579 L 526.66162,642.14696 L 529.5752,636.73602 L 529.15897,630.90886 L 524.58049,630.49263 L 515.00729,628.4115 L 518.75332,626.7466 L 517.08842,618.83831 L 523.33181,623.41679 L 527.49407,621.33566 L 530.82388,625.49792 L 528.32652,618.00585 L 534.15368,613.01114 L 539.98085,610.51379 L 540.8133,603.43795 L 537.48349,598.44323 L 533.73746,594.6972 L 529.5752,591.36739 L 541.22953,591.36739 L 542.89443,593.0323 L 551.21895,585.54023 L 553.7163,578.04816 L 546.22424,582.62665 L 545.80801,578.88062 L 539.98085,578.04816 L 548.72159,573.8859 L 544.97556,571.80477 L 554.13253,570.5561 L 557.04611,567.64251 L 559.95969,575.96703 L 558.29479,583.04287 L 551.63517,591.78362 L 543.72688,605.9353 L 538.31594,616.75718 L 535.81859,627.99528 C 535.81859,627.99528 538.73217,629.66018 538.73217,627.57905 C 538.73217,625.49792 543.31066,610.09756 543.31066,610.09756 C 543.31066,610.09756 552.46763,595.94588 552.46763,594.28098 C 552.46763,592.61607 564.12195,577.21571 564.12195,577.21571 L 571.19779,571.38855 L 564.53818,570.5561 L 566.61931,566.39384 L 566.61931,560.9829 L 564.53818,553.90706 C 564.53818,553.90706 572.03024,552.65838 572.03024,555.57196 C 572.03024,558.48554 573.69515,563.48026 573.69515,563.48026 L 577.02496,563.48026 L 575.36005,568.89119 C 575.36005,568.89119 579.52231,563.48026 581.18722,563.89648 C 582.85212,564.31271 589.92796,562.6478 589.92796,562.6478 L 585.34947,558.90177 C 585.34947,558.90177 579.10609,563.06403 579.10609,560.56667 C 579.10609,558.06932 585.34947,555.15574 585.34947,555.15574 L 579.93854,547.24744 L 573.69515,547.24744 L 574.94383,541.42028 L 572.8627,536.42557 L 579.10609,538.5067 L 580.77099,534.34444 L 579.10609,541.42028 L 583.26835,542.25273 C 583.26835,542.25273 582.43589,548.0799 585.7657,548.0799 C 589.09551,548.0799 587.4306,543.08518 587.4306,543.08518 L 585.7657,538.92293 L 585.7657,533.51199 L 590.34419,539.33915 L 593.67399,544.75009 L 601.16606,535.59312 L 598.6687,545.58254 L 607.40945,542.66896 L 614.48529,541.00405 L 620.72868,536.42557 L 625.72339,537.25802 L 597.83625,550.57725 L 601.58229,552.24216 L 637.79394,531.84708 C 637.79394,531.84708 643.62111,532.26331 645.28601,530.59841 C 646.95091,528.9335 651.5294,522.27389 651.5294,522.27389 C 651.5294,522.27389 659.43769,511.45201 663.18373,511.45201 C 666.92976,511.45201 677.33541,501.87882 677.33541,501.87882 L 671.50824,503.95995 L 664.84863,510.20334 L 654.02675,514.36559 L 655.27543,503.95995 C 655.27543,503.95995 664.4324,508.53843 664.84863,506.87353 C 665.26486,505.20862 668.17844,501.04636 668.17844,501.04636 C 668.17844,501.04636 673.17315,503.12749 672.75692,501.04636 C 672.3407,498.96524 672.3407,493.5543 672.3407,493.5543 L 666.09731,492.30562 L 667.76221,486.89468 L 661.93505,483.56488 L 667.34598,478.57016 C 667.34598,478.57016 664.84863,473.57545 668.59466,473.99168 C 672.3407,474.4079 669.42711,477.73771 674.0056,477.73771 C 678.58409,477.73771 679.00031,470.66187 679.00031,470.66187 C 679.00031,470.66187 683.5788,472.743 683.5788,474.4079 C 683.5788,476.07281 682.74634,483.9811 682.74634,483.9811 L 679.00031,487.31091 L 693.56822,486.89468 L 678.58409,495.2192 L 694.40067,487.72713 C 694.40067,487.72713 708.55235,481.48375 710.63348,480.23507 C 712.71461,478.98639 728.94742,478.57016 728.94742,478.57016 L 737.68817,474.4079 L 755.58588,471.91055 L 752.6723,465.66716 L 756.83456,463.1698 L 757.25079,450.68303 L 760.5806,460.25622 L 762.2455,465.25093 L 758.08324,468.16452 L 757.66701,473.57545 L 764.32663,471.0781 L 773.4836,471.91055 L 775.1485,475.24036 L 775.98095,765.76606"
       id="path1978" />
    <path
       sodipodi:nodetypes="ccccscccccccccccsccccccccccccccccccscsccccccccccccccccccccccccccccccccccccccccscsccccccscccscccccc"
       style="fill:#ccc;fill-opacity:1;fill-rule:evenodd;stroke:none;stroke-width:2;stroke-linecap:butt;stroke-linejoin:miter;stroke-miterlimit:4;stroke-dasharray:none;stroke-opacity:1"
       d="M 512.25597,763.68493 L 512.25597,758.27399 L 508.92616,757.85777 L 513.92087,754.11174 C 513.92087,754.11174 505.59635,750.78193 508.09371,750.3657 C 510.59107,749.94948 512.25597,749.53325 512.25597,749.53325 L 510.59107,746.20344 L 513.92087,742.04118 L 519.33181,747.86835 L 522.24539,748.28457 L 521.41294,743.70609 L 520.58049,738.29515 L 524.32652,737.87892 L 525.15897,742.87364 L 528.48878,747.03589 L 523.07784,764.93361 C 523.07784,764.93361 531.40236,747.03589 532.23481,744.95476 C 533.06727,742.87364 540.97556,724.97592 540.97556,724.97592 L 544.30537,709.99179 L 536.18199,707.84879 L 528.53828,714.74981 L 519.65826,707.42176 L 509.85761,702.13772 L 500.57375,703.05995 L 484.81903,700.53784 L 475.775,694.6596 L 467.07138,690.72323 L 456.62703,688.77979 L 453.7382,682.10622 L 437.51618,681.43621 L 436.86012,673.70274 L 429.15296,666.10851 L 429.30461,655.8282 L 426.13881,648.24792 L 415.78266,642.43314 C 415.78266,642.43314 416.42634,632.22863 417.2588,630.1475 C 418.09125,628.06637 412.54105,625.89704 412.54105,625.89704 C 412.54105,625.89704 414.92546,620.92708 414.50924,618.84595 C 414.09301,616.76482 413.76497,607.86006 413.76497,607.86006 L 402.31179,602.02052 L 394.51644,595.70131 L 391.43884,584.58853 L 384.65234,581.25872 L 384.89217,573.28699 L 372.37907,566.71556 L 370.07048,560.14414 L 366.1728,550.25529 L 361.59432,541.71568 L 358.98402,532.09141 L 352.2857,526.94506 L 351.20104,516.7158 L 344.67912,510.2697 L 339.55751,500.64543 L 330.70225,496.10406 L 320.66175,488.61199 L 313.7236,478.97535 L 308.52618,471.83607 L 301.81549,469.9824 L 287.46109,472.53082 L 274.4312,469.36503 L 267.94797,468.93643 L 259.87409,464.2945 L 254.57609,471.76183 L 242.01192,474.13386 L 233.48468,485.20952 L 230.05431,496.75091 L 226.15663,506.93067 L 217.42826,514.22159 L 211.66296,521.08392 L 203.85524,519.58303 L 194.44449,515.43316 L 191.55565,510.77884 L 184.02488,509.23926 L 175.97733,501.22882 L 166.4165,501.26594 L 157.34773,494.52893 L 153.67751,487.36332 L 141.8963,483.51514 C 141.8963,483.51514 137.26674,480.53811 137.26674,478.45698 C 137.26674,476.37585 136.62305,472.00008 136.62305,472.00008 C 136.62305,472.00008 130.69374,467.71251 130.69374,466.04761 C 130.69374,464.3827 128.42227,458.2662 128.42227,458.2662 L 129.69569,444.8959 L 121.8756,437.10055 L 119.89504,424.23467 L 110.03093,413.02132 L 102.72763,407.10596 C 102.72763,407.10596 93.972925,402.37583 93.972925,405.28941 C 93.972925,408.20299 84.033005,395.79046 84.033005,395.79046 L 78.659192,394.04974 L 78.154765,386.69536 C 78.154765,386.69536 66.070263,381.28443 67.735173,381.70065 C 69.400073,382.11688 56.16746,369.42738 56.16746,369.42738 L 44.626072,363.94062 C 44.626072,363.94062 38.962933,355.33757 38.962933,352.84021 L 27.93495,343.67718 L 1.7482575,344.10578 L 2.5807075,764.60558"
       id="path6434" />
    <path
       transform="translate(0.714286,-3.066389)"
       id="path2884"
       d="M 543.59108,713.05818 L 535.4677,710.91518 L 527.82399,717.8162 L 518.94397,710.48815 L 509.14332,705.20411 L 499.85946,706.12634 L 484.10474,703.60423 L 475.06071,697.72599 L 466.35709,693.78962 L 455.91274,691.84618 L 453.02391,685.17261 L 436.80189,684.5026 L 436.14583,676.76913 L 428.43867,669.1749 L 428.59032,658.89459 L 425.42452,651.31431 L 415.06837,645.49953 C 415.06837,645.49953 415.71205,635.29502 416.54451,633.21389 C 417.37696,631.13276 411.82676,628.96343 411.82676,628.96343 C 411.82676,628.96343 414.21117,623.99347 413.79495,621.91234 C 413.37872,619.83121 413.05068,610.92645 413.05068,610.92645 L 401.5975,605.08691 L 393.80215,598.7677 L 390.72455,587.65492 L 383.93805,584.32511 L 384.17788,576.35338 L 371.66478,569.78195 L 369.35619,563.21053 L 365.45851,553.32168 L 360.88003,544.78207 L 358.26973,535.1578 L 351.57141,530.01145 L 350.48675,519.78219 L 343.96483,513.33609 L 338.84322,503.71182 L 329.98796,499.17045 L 319.94746,491.67838 L 313.00931,482.04174 L 307.81189,474.90246 L 301.1012,473.04879 L 286.7468,475.59721 L 273.71691,472.43142 L 267.23368,472.00282 L 259.1598,467.36089 L 253.8618,474.82822 L 241.29763,477.20025 L 232.77039,488.27591 L 229.34002,499.8173 L 225.44234,509.99706 L 216.71397,517.28798 L 210.94867,524.15031 L 203.14095,522.64942 L 193.7302,518.49955 L 190.84136,513.84523 L 183.31059,512.30565 L 175.26304,504.29521 L 165.70221,504.33233 L 156.63344,497.59532 L 152.96322,490.42971 L 141.18201,486.58153 C 141.18201,486.58153 136.55245,483.6045 136.55245,481.52337 C 136.55245,479.44224 135.90876,475.06647 135.90876,475.06647 C 135.90876,475.06647 129.97945,470.7789 129.97945,469.114 C 129.97945,467.44909 127.70798,461.33259 127.70798,461.33259 L 128.9814,447.96229 L 121.16131,440.16694 L 119.18075,427.30106 L 109.31664,416.08771 L 102.01334,410.17235 C 102.01334,410.17235 93.258639,405.44222 93.258639,408.3558 C 93.258639,411.26938 83.318719,398.85685 83.318719,398.85685 L 77.944906,397.11613 L 77.440479,389.76175 C 77.440479,389.76175 65.355977,384.35082 67.020887,384.76704 C 68.685787,385.18327 55.453174,372.49377 55.453174,372.49377 L 43.911786,367.00701 C 43.911786,367.00701 38.248647,358.40396 38.248647,355.9066 L 27.220664,346.74357 L 1.0339715,347.17217"
       style="fill:none;fill-rule:evenodd;stroke:red;stroke-width:2;stroke-linecap:butt;stroke-linejoin:miter;stroke-opacity:1;fill-opacity:0.25098041;stroke-miterlimit:4;stroke-dasharray:none"
       sodipodi:nodetypes="cccccccccccccccccscsccccccccccccccccccccccccccccccccccccccccscsccccccscccsccccc" />
    <path
       sodipodi:nodetypes="ccccscccccccccccscc"
       style="fill:none;fill-rule:evenodd;stroke:blue;stroke-width:1;stroke-linecap:butt;stroke-linejoin:miter;stroke-opacity:1;fill-opacity:0.25098041;stroke-miterlimit:4;stroke-dasharray:none"
       d="M 511.54168,766.75132 L 511.54168,761.34038 L 508.21187,760.92416 L 513.20658,757.17813 C 513.20658,757.17813 504.88206,753.84832 507.37942,753.43209 C 509.87678,753.01587 511.54168,752.59964 511.54168,752.59964 L 509.87678,749.26983 L 513.20658,745.10757 L 518.61752,750.93474 L 521.5311,751.35096 L 520.69865,746.77248 L 519.8662,741.36154 L 523.61223,740.94531 L 524.44468,745.94003 L 527.77449,750.10228 L 522.36355,768 C 522.36355,768 530.68807,750.10228 531.52052,748.02115 C 532.35298,745.94003 540.26127,728.04231 540.26127,728.04231 L 543.59108,713.05818"
       id="path7321"
       transform="translate(0.714286,-3.066389)" />
    <path
       id="path8208"
       d="M 544.30537,709.99179 L 544.30537,693.34275 L 540.14311,678.77484 L 537.64575,670.86655 L 533.06727,656.29864 L 533.06727,639.23338 L 531.81859,630.90886 L 529.73746,632.57376 L 529.73746,642.56318 L 529.73746,653.38506 L 532.65104,662.95825 L 538.4782,680.85597 L 540.14311,694.59143 L 540.55933,702.08349 L 537.22953,701.66727 L 533.48349,692.92652 L 534.73217,690.01294 C 534.73217,690.01294 530.15368,687.93181 530.98614,685.85068 C 531.81859,683.76955 532.65104,680.43974 532.65104,680.43974 C 532.65104,680.43974 528.07255,681.2722 527.65633,679.19107 C 527.2401,677.10994 528.07255,668.78542 528.07255,668.78542 L 524.74275,660.04467 L 523.9103,655.46619 L 521.41294,654.21751 L 523.9103,650.8877 L 521.82917,647.5579 L 522.66162,642.14696 L 525.5752,636.73602 L 525.15897,630.90886 L 520.58049,630.49263 L 511.00729,628.4115 L 514.75332,626.7466 L 513.08842,618.83831 L 519.33181,623.41679 L 523.49407,621.33566 L 526.82388,625.49792 L 524.32652,618.00585 L 530.15368,613.01114 L 535.98085,610.51379 L 536.8133,603.43795 L 533.48349,598.44323 L 529.73746,594.6972 L 525.5752,591.36739 L 537.22953,591.36739 L 538.89443,593.0323 L 547.21895,585.54023 L 549.7163,578.04816 L 542.22424,582.62665 L 541.80801,578.88062 L 535.98085,578.04816 L 544.72159,573.8859 L 540.97556,571.80477 L 550.13253,570.5561 L 553.04611,567.64251 L 555.95969,575.96703 L 554.29479,583.04287 L 547.63517,591.78362 L 539.72688,605.9353 L 534.31594,616.75718 L 531.81859,627.99528 C 531.81859,627.99528 534.73217,629.66018 534.73217,627.57905 C 534.73217,625.49792 539.31066,610.09756 539.31066,610.09756 C 539.31066,610.09756 548.46763,595.94588 548.46763,594.28098 C 548.46763,592.61607 560.12195,577.21571 560.12195,577.21571 L 567.19779,571.38855 L 560.53818,570.5561 L 562.61931,566.39384 L 562.61931,560.9829 L 560.53818,553.90706 C 560.53818,553.90706 568.03024,552.65838 568.03024,555.57196 C 568.03024,558.48554 569.69515,563.48026 569.69515,563.48026 L 573.02496,563.48026 L 571.36005,568.89119 C 571.36005,568.89119 575.52231,563.48026 577.18722,563.89648 C 578.85212,564.31271 585.92796,562.6478 585.92796,562.6478 L 581.34947,558.90177 C 581.34947,558.90177 575.10609,563.06403 575.10609,560.56667 C 575.10609,558.06932 581.34947,555.15574 581.34947,555.15574 L 575.93854,547.24744 L 569.69515,547.24744 L 570.94383,541.42028 L 568.8627,536.42557 L 575.10609,538.5067 L 576.77099,534.34444 L 575.10609,541.42028 L 579.26835,542.25273 C 579.26835,542.25273 578.43589,548.0799 581.7657,548.0799 C 585.09551,548.0799 583.4306,543.08518 583.4306,543.08518 L 581.7657,538.92293 L 581.7657,533.51199 L 586.34419,539.33915 L 589.67399,544.75009 L 597.16606,535.59312 L 594.6687,545.58254 L 603.40945,542.66896 L 610.48529,541.00405 L 616.72868,536.42557 L 621.72339,537.25802 L 593.83625,550.57725 L 597.58229,552.24216 L 633.79394,531.84708 C 633.79394,531.84708 639.62111,532.26331 641.28601,530.59841 C 642.95091,528.9335 647.5294,522.27389 647.5294,522.27389 C 647.5294,522.27389 655.43769,511.45201 659.18373,511.45201 C 662.92976,511.45201 673.33541,501.87882 673.33541,501.87882 L 667.50824,503.95995 L 660.84863,510.20334 L 650.02675,514.36559 L 651.27543,503.95995 C 651.27543,503.95995 660.4324,508.53843 660.84863,506.87353 C 661.26486,505.20862 664.17844,501.04636 664.17844,501.04636 C 664.17844,501.04636 669.17315,503.12749 668.75692,501.04636 C 668.3407,498.96524 668.3407,493.5543 668.3407,493.5543 L 662.09731,492.30562 L 663.76221,486.89468 L 657.93505,483.56488 L 663.34598,478.57016 C 663.34598,478.57016 660.84863,473.57545 664.59466,473.99168 C 668.3407,474.4079 665.42711,477.73771 670.0056,477.73771 C 674.58409,477.73771 675.00031,470.66187 675.00031,470.66187 C 675.00031,470.66187 679.5788,472.743 679.5788,474.4079 C 679.5788,476.07281 678.74634,483.9811 678.74634,483.9811 L 675.00031,487.31091 L 689.56822,486.89468 L 674.58409,495.2192 L 690.40067,487.72713 C 690.40067,487.72713 704.55235,481.48375 706.63348,480.23507 C 708.71461,478.98639 724.94742,478.57016 724.94742,478.57016"
       style="fill:none;fill-opacity:1;fill-rule:evenodd;stroke:blue;stroke-width:1px;stroke-linecap:butt;stroke-linejoin:miter;stroke-opacity:1"
       sodipodi:nodetypes="cccccccccccccccccscsccccccccccccccccccccccccccccccccccccccccscsccccccscccsccscccccccccsccccccccccccccscscccccscscccccsscscccccsc" />
    <path
       transform="translate(0.714286,-3.066389)"
       id="path10868"
       d="M 724.23313,481.63655 L 732.97388,477.47429 L 750.87159,474.97694 L 747.95801,468.73355 L 752.12027,466.23619 L 752.5365,453.74942 L 755.86631,463.32261 L 757.53121,468.31732 L 753.36895,471.23091 L 752.95272,476.64184 L 759.61234,474.14449 L 768.76931,474.97694 L 770.43421,478.30675"
       style="fill:none;fill-rule:evenodd;stroke:blue;stroke-width:1px;stroke-linecap:butt;stroke-linejoin:miter;stroke-opacity:1;fill-opacity:1"
       sodipodi:nodetypes="ccccccccccccc" />
    <path
       style="fill:none;fill-rule:evenodd;stroke:red;stroke-width:2;stroke-linecap:butt;stroke-linejoin:miter;stroke-opacity:1;stroke-miterlimit:4;stroke-dasharray:none"
       d="M 26.691109,345.58418 L 23.789902,342.10273 L 20.308453,340.94225 L 20.308453,334.55959 L 19.14797,332.23863 L 217.59057,332.81887 L 218.17081,31.673527 L 385.28036,31.673527 L 384.70012,162.80811 L 392.8235,163.96859 L 403.84809,177.31415 L 411.39123,175.57342 L 411.97147,172.67221 L 417.77389,174.41294 L 425.31702,171.51173 L 427.63799,175.57342 L 431.69968,188.33873 L 443.30451,186.59801 C 443.30451,186.59801 446.78596,193.56091 449.10693,193.56091 C 451.42789,193.56091 463.61296,191.82018 463.61296,191.82018 L 469.41538,197.04236 L 479.27948,191.82018 L 485.66214,194.72139 L 494.94601,192.40042 L 490.88432,197.04236 L 499.0077,204.00526 L 501.9089,212.12864 L 514.09398,203.42501 L 519.89639,205.74598 C 519.89639,205.74598 525.69881,204.5855 525.69881,208.06695 C 525.69881,211.54839 529.18025,213.28912 529.18025,213.28912 L 537.30364,208.64719 L 539.6246,208.06695 C 539.6246,208.06695 540.78508,213.86936 540.78508,216.19033 C 540.78508,218.51129 544.84678,221.4125 544.84678,221.4125 C 544.84678,221.4125 543.10605,214.4496 546.5875,213.86936 C 550.06895,213.28912 551.80967,209.22743 551.80967,209.22743 L 552.38991,204.00526 L 557.61209,209.22743 C 557.61209,209.22743 562.25402,214.4496 564.57499,214.4496 C 566.89595,214.4496 569.21692,210.38791 569.21692,210.38791 L 574.43909,206.32622 L 576.17982,213.86936 L 582.56247,216.77057 L 587.20441,222.57298 L 590.10561,216.77057 C 590.10561,216.77057 596.48827,216.19033 599.38948,215.02984 C 602.29068,213.86936 608.67334,209.22743 608.67334,209.22743 L 619.11769,211.54839 L 628.40155,205.74598 L 637.10517,210.38791 C 637.10517,210.38791 646.96928,204.00526 649.29025,204.00526 C 651.61121,204.00526 655.09266,209.80767 657.41363,209.80767 C 659.73459,209.80767 666.11725,216.19033 666.11725,216.19033 L 669.5987,220.25202 L 676.5616,220.25202 L 680.04305,224.31371 L 687.00594,223.73347 L 694.54908,228.95564 L 699.19102,233.59757 L 700.3515,227.79516 L 711.37609,228.3754 L 714.85754,233.59757 L 714.2773,332.81887 L 720.65995,340.94225 L 727.62285,353.12732 L 729.36357,364.73215 L 733.42527,374.59626 L 731.1043,382.1394 L 739.80792,387.94181 L 739.80792,399.54664 L 738.0672,414.63292 L 731.68454,421.59582 L 731.68454,432.04017 L 731.1043,439.58331 L 731.1043,454.08934 L 729.94382,461.05224 L 723.56116,469.75587 L 722.40068,474.3978 L 724.72164,480.78045"
       id="path11755"
       transform="translate(0.714286,-3.066389)" />
    <path
       transform="translate(0.714286,-3.066389)"
       id="path17969"
       d="M 221.86904,32.401192 L 220.95412,-0.53606808"
       style="fill:none;fill-rule:evenodd;stroke:red;stroke-width:2;stroke-linecap:butt;stroke-linejoin:miter;stroke-opacity:1;fill-opacity:1;stroke-miterlimit:4;stroke-dasharray:none"
       sodipodi:nodetypes="cc" />
    <path
       style="fill:none;fill-rule:evenodd;stroke:blue;stroke-width:1px;stroke-linecap:butt;stroke-linejoin:miter;stroke-opacity:1"
       d="M 70.590888,0.1636554 L 70.590888,7.8644796 L 74.4413,15.886171 L 71.553491,20.378319 L 75.083036,27.437408 C 75.083036,27.437408 71.232624,31.929555 71.232624,34.175629 C 71.232624,36.421703 70.911756,44.443394 70.911756,44.443394 L 66.098741,50.219013 C 66.098741,50.219013 56.793578,51.181616 56.793578,52.785954 C 56.793578,54.390292 55.18924,59.203307 53.905769,59.203307 C 52.622299,59.203307 49.73449,73.321485 49.73449,73.321485 C 49.73449,73.321485 44.921474,78.455368 44.921474,79.738839 C 44.921474,81.022309 38.183253,86.797927 38.183253,88.081398 C 38.183253,89.364869 33.370238,102.52044 33.370238,102.52044 L 26.632017,111.18387 C 26.632017,111.18387 22.13987,115.03428 21.819002,116.31775 C 21.498134,117.60122 21.177267,121.13077 21.177267,121.13077 C 21.177267,121.13077 16.043384,125.30205 16.043384,126.58552 C 16.043384,127.86899 18.289457,133.64461 18.289457,135.24895 C 18.289457,136.85328 15.722516,145.19584 15.722516,145.19584 L 15.401648,162.84357 L 10.909501,171.18613 C 10.909501,171.18613 10.588633,175.99914 10.588633,177.28261 C 10.588633,178.56608 9.6260302,184.02083 9.6260302,184.02083 L 4.8130151,187.87124 L 7.7008242,196.2138 C 7.7008242,196.2138 7.7008242,203.59376 7.7008242,204.87723 C 7.7008242,206.1607 7.7008242,217.0702 7.7008242,217.0702 L 0,225.0919"
       id="path15308"
       transform="translate(0.714286,-3.066389)" />
    <path
       style="fill:none;fill-rule:evenodd;stroke:blue;stroke-width:1px;stroke-linecap:butt;stroke-linejoin:miter;stroke-opacity:1"
       d="M 0.40591694,295.02558 C 0.40591694,295.51268 6.494671,303.63102 6.494671,303.63102 C 6.494671,303.63102 8.1183387,309.63859 8.1183387,309.96333 C 8.1183387,310.28806 8.1995221,311.66818 8.1995221,312.23646 C 8.1995221,312.80475 12.826975,317.67575 12.826975,318.16285 C 12.826975,318.64995 15.34366,326.20001 15.34366,326.20001 L 18.996913,331.88284"
       id="path16195"
       transform="translate(0.714286,-3.066389)" />
    <path
       style="fill:none;fill-rule:evenodd;stroke:blue;stroke-width:1px;stroke-linecap:butt;stroke-linejoin:miter;stroke-opacity:1;fill-opacity:1"
       d="M 81.428226,68.998148 L 77.311069,79.519772 L 74.566297,81.807082 L 74.108835,97.360788 L 77.768531,103.30779 L 85.087922,108.33987 L 89.205079,116.11673 L 96.981932,117.03165 L 104.30132,120.23389 L 107.50356,124.8085 L 113.45056,121.60627 L 119.39757,127.09581 L 129.00427,130.75551 L 128.08934,135.78759 L 129.00427,137.61744 L 133.12143,148.59653 L 138.15351,151.3413 L 137.69605,155.91592 L 142.72813,156.83084 C 142.72813,156.83084 142.27066,161.40546 143.18559,163.69277 C 144.10051,165.98008 150.96244,166.43754 150.96244,166.43754 C 150.96244,166.43754 154.62214,166.895 154.62214,170.09724 C 154.62214,173.29947 156.90945,183.8211 156.90945,183.8211 L 151.87737,186.56587 L 149.13259,192.51287 L 149.59006,201.66211 L 150.96244,207.15166 L 149.13259,212.18374 L 151.4199,214.92851 C 151.4199,214.92851 149.13259,216.75836 149.13259,219.50313 C 149.13259,222.2479 147.76021,224.53521 147.76021,224.53521 L 144.10051,228.1949 L 147.30275,232.31206 C 147.30275,232.31206 145.4729,232.31206 145.4729,235.05683 C 145.4729,237.80161 145.01544,238.71653 145.01544,238.71653 L 142.72813,241.00384 L 145.01544,243.74861 C 145.01544,243.74861 147.76021,244.66353 147.76021,246.49338 C 147.76021,248.32323 147.30275,253.81277 147.30275,253.81277 L 151.4199,259.30232 C 151.4199,259.30232 151.4199,263.41947 151.4199,265.24932 C 151.4199,267.07917 145.93036,268.45156 145.93036,268.45156 L 145.93036,273.02618 L 150.04752,279.43064 L 148.67513,291.32465 L 145.4729,294.98435 C 145.4729,294.98435 146.38782,299.10151 148.67513,299.10151 C 150.96244,299.10151 154.62214,302.7612 154.62214,302.7612 L 156.90945,305.50597 L 163.31391,310.99552 C 163.31391,310.99552 168.346,314.65521 166.05869,319.22983 C 163.77138,323.80445 163.77138,323.34699 163.77138,323.34699 C 163.77138,323.34699 166.05869,326.54922 166.05869,328.37907 C 166.05869,330.20892 171.54823,334.78354 171.54823,337.07085 C 171.54823,339.35816 177.03777,343.01785 177.03777,343.01785 L 176.58031,344.8477 L 183.8997,348.04993 L 192.13402,358.1141 L 194.87879,366.34841 L 207.23026,368.63572 L 211.80488,372.29542 C 211.80488,372.29542 216.83696,371.83796 219.12427,371.83796 C 221.41158,371.83796 230.56082,378.69988 230.56082,378.69988 L 242.45483,375.04019 L 249.77422,381.44466 C 249.77422,381.44466 255.26377,388.30659 254.8063,390.13643 C 254.34884,391.96628 262.58316,393.79613 264.413,393.79613 C 266.24285,393.79613 271.27493,398.37075 271.27493,398.37075 C 271.27493,398.37075 276.30701,396.99836 278.13686,397.91329 C 279.96671,398.82821 282.25402,403.40283 282.25402,405.23268 C 282.25402,407.06253 287.74356,417.58415 287.74356,417.58415 L 294.14803,418.95654 L 290.48834,432.68039 L 295.52042,437.71248 L 289.57341,442.74456 L 298.72265,449.14902 L 300.09504,455.09603 C 300.09504,455.09603 303.29727,450.97887 303.29727,452.80872 C 303.29727,454.63857 303.29727,461.04303 303.29727,461.04303 C 303.29727,461.04303 301.92488,467.90496 303.75473,467.4475 C 305.58458,466.99004 309.24428,472.02212 309.24428,472.02212 C 309.24428,472.02212 314.27636,475.22436 313.36143,477.0542 C 312.44651,478.88405 311.53158,479.79897 311.53158,479.79897"
       id="path19741"
       transform="translate(0.714286,-3.066389)" />
    <path
       style="fill:none;fill-rule:evenodd;stroke:blue;stroke-width:1px;stroke-linecap:butt;stroke-linejoin:miter;stroke-opacity:1"
       d="M 139.98336,18.677334 L 138.61097,28.284034 L 135.8662,32.858654 L 138.61097,44.295203"
       id="path20628"
       transform="translate(0.714286,-3.066389)" />
    <path
       style="fill:none;fill-rule:evenodd;stroke:blue;stroke-width:1px;stroke-linecap:butt;stroke-linejoin:miter;stroke-opacity:1"
       d="M 386.55534,462.67572 C 386.55534,462.67572 383.28868,467.24905 383.94201,468.12016 C 384.59534,468.99127 384.59534,477.92016 384.59534,477.92016 L 386.77312,482.27571 L 386.77312,489.2446 L 384.37757,492.07571 L 386.9909,493.81793 L 386.9909,499.26237 L 390.9109,506.44903 C 390.9109,506.44903 392.21756,509.06236 392.21756,509.93347 C 392.21756,510.80459 392.21756,517.77347 392.21756,517.77347 L 398.75089,523.00013 C 398.75089,523.00013 398.96867,526.04902 398.75089,527.79124 C 398.53311,529.53346 397.44423,537.59124 397.44423,537.59124 L 396.57312,544.12457 L 399.18645,551.31123 L 401.79978,554.14234 L 409.63978,554.36012 L 413.77755,559.80456 L 422.27088,559.58678 L 424.23088,557.19123 L 428.58643,561.329 L 438.38643,570.25789 L 440.12865,577.66233 L 444.26642,580.05788 L 452.54197,579.18677 L 464.9553,566.77344 L 470.18196,566.33789 L 476.06196,563.07122 L 482.59529,558.28011 L 486.29751,559.369 L 488.91084,558.28011 L 493.48417,566.99122 L 494.79084,570.91122 L 499.36417,570.91122 L 502.84861,576.35566 C 502.84861,576.35566 502.19528,578.09788 502.19528,578.96899 C 502.19528,579.8401 506.11528,582.88899 506.11528,582.88899 L 508.29305,583.32455 L 508.51083,590.07565 L 517.65749,590.07565 C 517.65749,590.07565 517.00416,594.64898 518.31083,594.86676 C 519.61749,595.08454 524.4086,594.86676 524.4086,594.86676"
       id="path23289"
       transform="translate(0.714286,-3.066389)" />
    <path
       style="fill:none;fill-rule:evenodd;stroke:blue;stroke-width:1px;stroke-linecap:butt;stroke-linejoin:miter;stroke-opacity:1"
       d="M 315.8124,291.14553 L 321.47719,293.77562 L 328.35588,295.59645 L 331.5929,297.8219 L 336.24613,298.22653 L 335.8415,303.89133 L 338.87621,307.53298 L 340.29241,311.57926 L 336.65076,314.81629 L 338.6739,317.851 C 338.6739,317.851 340.0901,319.67183 340.69704,321.08803 C 341.30398,322.50423 340.69704,325.13431 341.91092,325.53894 C 343.12481,325.94357 347.17109,329.1806 347.17109,329.1806 L 350.2058,333.83382 L 355.06134,334.84539 L 359.10763,340.10556 L 364.57011,340.51019 L 374.68582,341.72407 L 377.92284,348.40044 L 390.87095,348.40044 C 390.87095,348.40044 396.53575,351.63747 396.53575,352.44672 C 396.53575,353.25598 399.16583,358.11152 399.16583,358.92078 C 399.16583,359.73003 404.02137,358.51615 404.22368,359.52772 C 404.426,360.53929 408.87691,363.97863 408.87691,363.97863 C 408.87691,363.97863 413.53014,363.574 413.93476,366.00177 C 414.33939,368.42954 421.01576,366.4064 421.42039,367.41797 C 421.82502,368.42954 426.68056,367.41797 426.68056,367.41797 L 438.41478,366.20409 L 445.29346,367.21566 C 445.29346,367.21566 452.57677,367.21566 452.77908,368.42954 C 452.9814,369.64343 457.83694,372.27351 457.83694,372.27351 C 457.83694,372.27351 462.89479,373.4874 462.89479,374.90359 C 462.89479,376.31979 466.53644,386.03087 466.53644,386.03087 C 466.53644,386.03087 466.73876,388.86327 468.35727,389.2679 C 469.97578,389.67253 472.20124,388.45864 472.20124,390.27947 C 472.20124,392.1003 472.60587,395.33732 472.60587,395.33732 L 471.99893,400.39518 L 473.21281,404.64378 C 473.21281,404.64378 468.96421,406.86923 471.18967,407.67849 C 473.41513,408.48774 476.85447,408.48774 476.85447,408.48774 C 476.85447,408.48774 471.99893,409.70163 471.99893,410.51089 C 471.99893,411.32014 474.83132,413.74791 474.83132,414.55717 C 474.83132,415.36643 474.83132,416.378 474.83132,418.40114 C 474.83132,420.42428 474.83132,423.25668 474.83132,423.25668 C 474.83132,423.25668 484.94703,422.44742 485.14935,423.25668 C 485.35166,424.06593 491.01646,427.50528 491.01646,427.50528 L 497.08588,432.96776 C 497.08588,432.96776 501.73911,433.37239 501.73911,434.18164 C 501.73911,434.9909 505.38076,437.62098 505.38076,437.62098 L 510.43862,440.25107 L 512.66407,443.28578 L 516.71035,444.09504 L 519.13812,447.12975 L 522.77978,445.10661 L 526.42143,448.74826 L 531.27697,449.75983 L 533.90706,456.63851 L 536.73946,456.4362 C 536.73946,456.4362 535.9302,459.87554 537.75103,459.87554 C 539.57185,459.87554 541.19037,456.84083 541.19037,456.84083 L 546.65285,458.86397 C 546.65285,458.86397 546.65285,460.88711 547.66442,460.88711 C 548.67599,460.88711 551.91302,460.48248 552.72227,460.6848 C 553.53153,460.88711 557.17319,460.6848 557.17319,461.49405 C 557.17319,462.30331 557.17319,466.14728 557.17319,466.14728 C 557.17319,466.14728 562.83798,465.74265 562.83798,466.55191 C 562.83798,467.36116 563.64724,470.59819 563.64724,470.59819 L 568.30046,473.43059 C 568.30046,473.43059 570.32361,473.02596 570.32361,475.0491 C 570.32361,477.07224 569.31204,478.28613 571.13286,478.28613 C 572.95369,478.28613 578.41617,478.28613 578.41617,478.28613 C 578.41617,478.28613 580.64163,478.89307 581.24857,479.70233 C 581.85551,480.51158 582.86708,482.53473 582.86708,483.5463 C 582.86708,484.55787 585.09254,489.61572 585.09254,489.61572 C 585.09254,489.61572 587.11568,493.05506 587.11568,494.06663 C 587.11568,495.0782 587.11568,498.71986 587.11568,498.71986 C 587.11568,498.71986 589.54345,499.3268 590.15039,500.33837 C 590.75734,501.34994 595.20825,502.1592 595.20825,502.1592 L 598.8499,503.5754 C 598.8499,503.5754 601.07536,503.98003 601.07536,505.80085 C 601.07536,507.62168 600.2661,509.24019 601.27767,509.84714 C 602.28924,510.45408 604.71701,507.62168 604.71701,511.87028 C 604.71701,516.11888 604.71701,519.96284 604.71701,519.96284 C 604.71701,519.96284 606.33553,520.56979 606.33553,521.58136 C 606.33553,522.59293 606.33553,528.66235 606.33553,530.07855 C 606.33553,531.49475 606.13321,536.35029 606.13321,537.15955 C 606.13321,537.9688 609.37024,543.83592 609.37024,543.83592"
       id="path24176"
       transform="translate(0.714286,-3.066389)" />
    <path
       transform="translate(0.714286,-3.066389)"
       id="path25063"
       d="M 221.12991,2.0525775 L 222.42846,32.264899 L 218.17081,31.673527 L 385.28036,31.673527 L 384.70012,162.80811 L 392.8235,163.96859 L 403.84809,177.31415 L 411.39123,175.57342 L 411.97147,172.67221 L 417.77389,174.41294 L 425.31702,171.51173 L 427.63799,175.57342 L 431.69968,188.33873 L 443.30451,186.59801 C 443.30451,186.59801 446.78596,193.56091 449.10693,193.56091 C 451.42789,193.56091 463.61296,191.82018 463.61296,191.82018 L 469.41538,197.04236 L 479.27948,191.82018 L 485.66214,194.72139 L 494.94601,192.40042 L 490.88432,197.04236 L 499.0077,204.00526 L 501.9089,212.12864 L 514.09398,203.42501 L 519.89639,205.74598 C 519.89639,205.74598 525.69881,204.5855 525.69881,208.06695 C 525.69881,211.54839 529.18025,213.28912 529.18025,213.28912 L 537.30364,208.64719 L 539.6246,208.06695 C 539.6246,208.06695 540.78508,213.86936 540.78508,216.19033 C 540.78508,218.51129 544.84678,221.4125 544.84678,221.4125 C 544.84678,221.4125 543.10605,214.4496 546.5875,213.86936 C 550.06895,213.28912 551.80967,209.22743 551.80967,209.22743 L 552.38991,204.00526 L 557.61209,209.22743 C 557.61209,209.22743 562.25402,214.4496 564.57499,214.4496 C 566.89595,214.4496 569.21692,210.38791 569.21692,210.38791 L 574.43909,206.32622 L 576.17982,213.86936 L 582.56247,216.77057 L 587.20441,222.57298 L 590.10561,216.77057 C 590.10561,216.77057 596.48827,216.19033 599.38948,215.02984 C 602.29068,213.86936 608.67334,209.22743 608.67334,209.22743 L 619.11769,211.54839 L 628.40155,205.74598 L 637.10517,210.38791 C 637.10517,210.38791 646.96928,204.00526 649.29025,204.00526 C 651.61121,204.00526 655.09266,209.80767 657.41363,209.80767 C 659.73459,209.80767 666.11725,216.19033 666.11725,216.19033 L 669.5987,220.25202 L 676.5616,220.25202 L 680.04305,224.31371 L 687.00594,223.73347 L 690.92066,227.14143 L 688.30577,165.8671 L 691.88519,162.48363 L 692.02453,100.77603 L 687.03967,61.247707 L 684.64522,41.335945 L 683.1663,1.6851521"
       style="fill:#ccc;fill-rule:evenodd;stroke:none;stroke-width:2;stroke-linecap:butt;stroke-linejoin:miter;stroke-opacity:1;stroke-miterlimit:4;stroke-dasharray:none;fill-opacity:1"
       sodipodi:nodetypes="ccccccccccccccsccccccccccscccscscccsccccccsccccsscccccccccccc" />
    <path
       sodipodi:nodetypes="ccccccc"
       style="fill:none;fill-rule:evenodd;stroke:red;stroke-width:2;stroke-linecap:butt;stroke-linejoin:miter;stroke-opacity:1;stroke-miterlimit:4;stroke-dasharray:none;fill-opacity:0.25098041"
       d="M 690.92066,227.14143 L 688.30577,165.8671 L 691.88519,162.48363 L 692.02453,100.77603 L 687.03967,61.247707 L 684.64522,41.335945 L 683.1663,1.6851521"
       id="path26835"
       transform="translate(0.714286,-3.066389)" />
    <path
       style="fill:none;fill-rule:evenodd;stroke:blue;stroke-width:1px;stroke-linecap:butt;stroke-linejoin:miter;stroke-opacity:1"
       d="M 554.25262,0.044356644 L 554.25262,7.8252456 L 558.41449,11.625215 L 560.94781,15.063282 L 555.15738,19.768005 L 548.28124,19.948956 L 548.64315,27.548894 L 556.24308,27.548894 L 554.43357,30.444109 L 550.99551,31.710765 L 552.80502,35.329783 L 555.15738,37.501194 C 555.15738,37.501194 563.84302,27.548894 563.66207,28.272698 C 563.48112,28.996502 564.20492,31.891716 564.20492,31.891716 C 564.20492,31.891716 567.28109,31.167912 567.28109,31.891716 C 567.28109,32.61552 567.64299,38.044047 567.64299,38.044047 L 572.16676,38.044047 L 575.42388,39.491654 L 576.14768,46.72969 L 578.13814,46.910641 L 580.85241,44.920181 L 585.55713,48.358248 L 586.46189,49.805856 L 588.81425,50.71061 L 592.43326,52.882021 C 592.43326,52.882021 591.70946,58.67245 592.43326,58.491499 C 593.15707,58.310548 596.41418,55.958186 596.41418,55.958186 C 596.41418,55.958186 596.41418,58.310548 597.86179,58.67245 C 599.3094,59.034352 605.82363,58.491499 605.82363,58.491499 L 606.18553,60.843861 C 606.18553,60.843861 607.99504,62.291468 607.99504,63.558125 C 607.99504,64.824781 608.17599,67.358094 608.17599,67.358094 L 613.78547,72.967572 C 613.78547,72.967572 616.49974,69.710455 617.22354,69.891406 C 617.94734,70.072357 620.2997,71.881866 620.2997,72.786621 C 620.2997,73.691375 626.81394,72.967572 626.63299,73.872326 C 626.45204,74.777081 626.63299,79.300853 626.63299,80.205608 C 626.63299,81.110362 626.45204,82.55797 627.35679,82.919871 C 628.26154,83.281773 630.79486,81.291313 632.78532,81.291313 C 634.77578,81.291313 643.09952,81.291313 643.09952,81.291313 C 643.09952,81.291313 646.35663,77.853246 646.17568,80.929411 C 645.99473,84.005577 645.99473,85.453184 645.99473,85.453184 C 645.99473,85.453184 648.34709,84.72938 648.16614,85.453184 C 647.98519,86.176988 647.80424,93.234073 647.80424,93.234073 L 652.87087,94.319778 C 652.87087,94.319778 652.32801,96.67214 652.68992,97.757846 C 653.05182,98.843551 655.04228,99.205453 655.04228,100.65306 C 655.04228,102.10067 657.21369,103.00542 657.21369,103.00542 L 658.48035,106.08159"
       id="path27722"
       transform="translate(0.714286,-3.066389)" />
    <path
       style="fill:none;fill-rule:evenodd;stroke:blue;stroke-width:1px;stroke-linecap:butt;stroke-linejoin:miter;stroke-opacity:1"
       d="M 659.56605,0.044356644 L 663.72792,4.3871784 L 668.9755,7.8252456 L 674.04212,15.244233 L 674.58498,20.67276 L 671.50881,24.834631 L 668.07074,28.6346 L 664.45173,31.891716 L 659.3851,32.61552 L 656.85179,34.60598 L 659.92795,36.415489 L 653.05182,36.59644 L 653.05182,39.310703 C 653.05182,39.310703 654.68038,40.577359 654.68038,41.301163 C 654.68038,42.024967 653.59467,44.015427 653.59467,44.015427 C 653.59467,44.015427 652.32801,46.72969 652.32801,47.634445 C 652.32801,48.539199 652.32801,50.71061 652.32801,50.71061 C 652.32801,50.71061 647.08044,50.167757 647.08044,50.891561 C 647.08044,51.615365 645.63283,53.786776 645.63283,53.786776 L 644.90903,57.405794 C 644.90903,57.405794 647.62329,58.310548 647.62329,59.034352 C 647.62329,59.758155 647.62329,61.748615 647.62329,61.748615 L 644.36617,64.824781 L 647.62329,67.177143 C 647.62329,67.177143 645.81378,67.358094 645.63283,68.805701 C 645.45188,70.253308 645.45188,72.243768 645.45188,72.243768 L 648.52805,74.234228 L 647.98519,77.310393 L 645.45188,79.300853 L 645.45188,79.300853 L 646.17568,79.843706"
       id="path28609"
       transform="translate(0.714286,-3.066389)" />
    <path
       sodipodi:nodetypes="ccccccccccccc"
       style="fill:#ccc;fill-rule:evenodd;stroke:none;stroke-width:2;stroke-linecap:butt;stroke-linejoin:miter;stroke-opacity:1;fill-opacity:1;stroke-miterlimit:4;stroke-dasharray:none"
       d="M 770.50212,152.26983 L 732.97388,477.47429 L 750.87159,474.97694 L 747.95801,468.73355 L 752.12027,466.23619 L 752.5365,453.74942 L 755.86631,463.32261 L 757.53121,468.31732 L 753.36895,471.23091 L 752.95272,476.64184 L 759.61234,474.14449 L 768.76931,474.97694 L 770.43421,478.30675"
       id="path30381"
       transform="translate(0.714286,-3.066389)" />
    <path
       transform="translate(0.714286,-3.066389)"
       id="path30383"
       d="M 766.87934,226.30096 L 691.35325,223.97098 L 687.00594,223.73347 L 694.54908,228.95564 L 699.19102,233.59757 L 700.3515,227.79516 L 711.37609,228.3754 L 714.85754,233.59757 L 714.2773,332.81887 L 720.65995,340.94225 L 727.62285,353.12732 L 729.36357,364.73215 L 733.42527,374.59626 L 731.1043,382.1394 L 739.80792,387.94181 L 739.80792,399.54664 L 738.0672,414.63292 L 731.68454,421.59582 L 731.68454,432.04017 L 731.1043,439.58331 L 731.1043,454.08934 L 729.94382,461.05224 L 723.56116,469.75587 L 722.40068,474.3978 L 725.12338,480.57752 L 732.99666,477.84091 L 739.49901,473.04791 L 766.87934,226.30096 z "
       style="fill:#ccc;fill-rule:evenodd;stroke:none;stroke-width:2;stroke-linecap:butt;stroke-linejoin:miter;stroke-opacity:1;stroke-miterlimit:4;stroke-dasharray:none;fill-opacity:1"
       sodipodi:nodetypes="cccccccccccccccccccccccccccc" />
    <path
       transform="translate(0.714286,-3.066389)"
       id="path30385"
       d="M 770.77753,0.59470853 L 770.49828,174.39797 L 744.85676,341.34656 L 715.1865,225.67955 L 691.3427,224.8282 L 689.23864,165.20356 L 691.88519,162.48363 L 692.02453,100.77603 L 687.03967,61.247707 L 684.64522,41.335945 L 683.1663,0.31421884"
       style="fill:#ccc;fill-rule:evenodd;stroke:none;stroke-width:2;stroke-linecap:butt;stroke-linejoin:miter;stroke-opacity:1;stroke-miterlimit:4;stroke-dasharray:none;fill-opacity:1"
       sodipodi:nodetypes="ccccccccccc" />
    <path
       style="fill:none;fill-rule:evenodd;stroke:blue;stroke-width:1px;stroke-linecap:butt;stroke-linejoin:miter;stroke-opacity:1"
       d="M 94.237161,17.304948 L 95.609547,28.741496 L 102.92894,29.65642 L 110.70579,29.65642 L 119.39757,33.316116 L 125.34457,37.890735 L 134.49381,42.922817 L 140.44082,47.039974 L 143.64305,60.763833 L 148.67513,71.742919 C 148.67513,71.742919 145.93036,77.689925 145.01544,79.519772 C 144.10051,81.34962 143.64305,90.498859 143.64305,90.498859 L 153.24975,98.733174 L 155.99452,104.68018 L 160.56914,108.33987 L 166.51615,112.45703 C 166.51615,112.45703 175.20793,112.45703 177.9527,111.99957 C 180.69747,111.54211 186.64447,111.54211 186.64447,111.54211 L 206.31534,107.88241 L 215.00711,109.2548 L 232.39067,102.39287 L 260.29585,98.733174 L 271.7324,102.39287 L 290.9458,102.39287 L 300.09504,85.466778 C 300.09504,85.466778 319.7659,83.63693 319.7659,81.807082 C 319.7659,79.977234 327.54275,71.285457 327.54275,71.285457 L 340.35169,71.285457 L 358.1927,67.625762 L 371.4591,72.657843 L 381.52326,78.604848 L 391.58743,69.913071 L 396.61951,65.795914 L 400.2792,71.742919 L 408.97098,78.604848 L 416.74783,66.710838 C 416.74783,66.710838 428.18438,65.795914 427.72692,67.625762 C 427.26946,69.45561 431.84408,74.945153 431.84408,74.945153 L 434.58885,75.402615 L 440.07839,69.913071 L 441.45078,63.966066 C 441.45078,63.966066 450.60002,63.966066 449.68509,65.795914 C 448.77017,67.625762 454.25971,78.147387 454.25971,78.147387 L 465.2388,89.126473 L 468.44103,95.53094 L 479.87758,95.988402 L 484.4522,105.5951 C 484.4522,105.5951 493.14398,105.5951 493.14398,107.42495 C 493.14398,109.2548 500.46337,110.16972 500.46337,110.16972 C 500.46337,110.16972 506.86784,113.37196 508.69768,111.99957 C 510.52753,110.62718 519.67677,112.91449 519.67677,112.91449 C 519.67677,112.91449 525.16631,116.57419 525.16631,119.31896 C 525.16631,122.06373 529.28347,125.72343 529.28347,125.72343 L 532.94317,132.1279 L 532.94317,138.98983 L 543.92225,138.53236 L 554.44388,139.44729 L 554.44388,134.41521 L 556.73119,137.61744 L 562.22073,138.0749 L 566.79535,142.64952 C 566.79535,142.64952 571.82743,136.70252 574.11474,138.0749 C 576.40205,139.44729 583.72144,139.44729 583.72144,139.44729 L 590.12591,134.87267 L 597.4453,136.70252 L 604.30723,128.4682 L 612.08408,123.89358 L 620.77586,123.43612 L 632.21241,116.11673 C 632.21241,116.11673 632.66987,115.2018 637.70195,115.2018 C 642.73403,115.2018 648.22358,118.40404 648.22358,118.40404 C 648.22358,118.40404 653.25566,106.51003 655.08551,106.51003 C 656.91535,106.51003 656.91535,106.05257 659.66013,106.05257 C 662.4049,106.05257 667.89444,109.2548 667.89444,109.2548 L 677.50114,111.54211 L 680.24591,115.65927 L 685.27799,112.45703 L 689.85261,109.2548 C 689.85261,109.2548 695.79962,102.39287 696.71454,105.13764 C 697.62947,107.88241 698.08693,109.2548 701.28916,109.71226 C 704.4914,110.16972 709.06602,106.96749 709.06602,106.96749 L 719.58764,104.68018 L 725.99211,103.30779 L 732.85404,110.62718 C 732.85404,110.62718 737.88612,106.96749 740.17343,106.96749 C 742.46074,106.96749 754.35475,107.42495 754.35475,107.42495 C 754.35475,107.42495 755.72713,111.99957 757.55698,114.28688 C 759.38683,116.57419 758.92937,121.60627 761.67414,121.60627 C 764.41891,121.60627 768.53607,124.35104 768.53607,124.35104 L 769.45099,123.43612"
       id="path21515"
       transform="translate(0.714286,-3.066389)" />
    <path
       style="fill:none;fill-rule:evenodd;stroke:red;stroke-width:2;stroke-linecap:butt;stroke-linejoin:miter;stroke-opacity:1;stroke-miterlimit:4;stroke-dasharray:none"
       d="M 684.78117,32.494304 L 771.14996,32.15157 L 771.14996,32.15157 L 771.14996,32.494304"
       id="path32157"
       transform="translate(0.714286,-3.066389)" />
    <path
       style="fill:none;fill-rule:evenodd;stroke:blue;stroke-width:1px;stroke-linecap:butt;stroke-linejoin:miter;stroke-opacity:1"
       d="M 736.5339,79.448768 L 725.56643,78.763301 L 720.42543,74.650502 L 715.9699,67.110369 L 714.59896,62.654836 L 710.48616,59.227502 L 717.34083,55.800169 L 715.9699,51.001903 L 715.9699,43.804503 L 721.79636,43.804503 L 723.85276,36.607104 L 729.3365,35.23617 L 733.10656,26.667837 L 738.93303,26.325104 L 742.01763,29.752437 L 744.41676,25.639637 L 749.55776,25.639637 L 752.29963,29.066971 L 756.41243,25.296904 L 761.89616,20.155904 L 767.37989,22.212304 L 769.77903,22.897771 L 764.98076,26.667837 L 768.06536,30.095171 L 770.80723,30.437904 L 770.80723,30.437904 L 770.80723,30.437904"
       id="path33044"
       transform="translate(0.714286,-3.066389)" />
    <path
       style="fill:none;fill-rule:evenodd;stroke:blue;stroke-width:1px;stroke-linecap:butt;stroke-linejoin:miter;stroke-opacity:1"
       d="M 718.36903,157.24923 L 710.14343,157.59196 L 708.7725,160.67656 L 712.8853,164.44663 L 720.42543,164.1039 L 725.90916,159.64836 L 730.3647,161.70476 L 733.4493,157.9347 C 733.4493,157.9347 734.4775,159.9911 735.84843,159.9911 C 737.21936,159.9911 740.6467,158.62016 740.6467,158.62016 L 746.8159,161.36203 L 751.9569,158.27743 L 760.86796,159.30563 L 760.86796,166.1603 L 764.29529,171.3013 L 771.14996,171.3013"
       id="path33935"
       transform="translate(0.714286,-3.066389)" />
    <path
       style="fill:none;fill-rule:evenodd;stroke:blue;stroke-width:1px;stroke-linecap:butt;stroke-linejoin:miter;stroke-opacity:1"
       d="M 714.59896,230.59416 L 725.90916,227.85229 L 730.3647,232.99329 L 732.07836,241.21889 L 734.4775,248.07356 C 734.4775,248.07356 731.3929,249.10176 731.3929,250.47269 C 731.3929,251.84363 731.3929,254.92823 731.3929,254.92823 L 723.85276,258.69829 C 723.85276,258.69829 725.2237,266.92389 725.2237,268.29483 C 725.2237,269.66576 724.1955,275.49222 725.56643,275.83496 C 726.93736,276.17769 728.3083,280.29049 728.3083,281.66142 C 728.3083,283.03236 726.2519,286.80242 726.2519,286.80242 L 730.02196,293.65709 L 730.02196,298.45536 L 733.79203,305.65276 L 739.27576,311.13649 L 745.7877,316.62022 L 745.44496,322.10396 L 746.8159,323.81762 L 746.13043,327.93042 L 760.1825,340.95429 L 764.63803,337.86969 C 764.63803,337.86969 764.29529,340.26882 765.32349,342.66795 C 766.35169,345.06709 770.46449,345.06709 770.46449,345.06709"
       id="path34822"
       transform="translate(0.714286,-3.066389)" />
    <path
       style="fill:none;fill-rule:evenodd;stroke:red;stroke-width:2;stroke-linecap:butt;stroke-linejoin:miter;stroke-opacity:1;stroke-miterlimit:4;stroke-dasharray:none"
       d="M 714.9417,266.23843 L 771.49269,265.89569"
       id="path36594"
       transform="translate(0.714286,-3.066389)" />
    <path
       style="fill:none;fill-rule:evenodd;stroke:blue;stroke-width:1px;stroke-linecap:butt;stroke-linejoin:miter;stroke-opacity:1;fill-opacity:1"
       d="M 244.26752,148.55681 C 245.96579,148.55681 253.32495,147.70768 253.32495,147.70768 L 260.40107,146.5755 L 267.19414,144.87723 L 270.02458,140.06547 L 276.25157,135.96132 L 281.34637,135.67828 L 283.04464,138.08416 L 283.4692,131.57413 L 287.14878,129.4513 L 291.53598,129.87586 L 294.08338,133.13088 L 294.2249,135.67828 L 298.47057,140.20699 L 301.30102,144.0281 C 301.30102,144.0281 302.15015,145.86789 302.71624,145.72636 C 303.28233,145.58484 305.68821,142.61287 305.68821,142.61287 L 308.23561,143.03744 C 308.23561,143.03744 311.49062,145.3018 311.49062,145.86789 C 311.49062,146.43398 311.91519,150.11356 311.91519,150.11356 C 311.91519,150.11356 315.45325,150.11356 316.4439,150.3966 C 317.43456,150.67965 318.70826,153.79314 318.70826,153.79314 L 320.54805,156.62358 L 322.52936,159.17098 C 322.52936,159.17098 340.78574,159.02946 341.35183,159.45403 C 341.91792,159.8786 344.60685,162.14295 344.60685,162.14295 C 344.60685,162.14295 348.99404,161.57686 348.99404,162.28448 C 348.99404,162.99209 347.01273,164.9734 349.56013,164.9734 C 352.10753,164.9734 353.38123,162.56752 354.37189,162.426 C 355.36254,162.28448 358.47603,161.85991 358.47603,161.85991 C 358.47603,161.85991 362.29714,162.99209 363.14627,163.13361 C 363.9954,163.27513 366.54281,166.81319 367.53346,167.09623 C 368.52412,167.37928 370.50543,162.85056 371.35456,162.85056 C 372.2037,162.85056 376.87394,162.70904 377.58155,162.70904 C 378.28916,162.70904 381.68569,164.54883 381.68569,164.54883 L 384.09157,163.27513"
       id="path37481"
       transform="translate(0.714286,-3.066389)" />
    <path
       style="fill:none;fill-rule:evenodd;stroke:blue;stroke-width:1px;stroke-linecap:butt;stroke-linejoin:miter;stroke-opacity:1"
       d="M 588.42982,260.99713 C 588.42982,260.99713 588.17009,269.69825 588.29995,270.21772 C 588.42982,270.73719 591.93625,272.94494 591.93625,272.94494 L 597.52055,275.67216 L 601.02697,277.36044 L 603.75419,275.28255 L 608.16969,278.13964 L 613.10465,280.60712 L 615.70201,282.55514 L 621.93565,283.72394 L 626.22128,284.76289 L 629.85757,287.87971 L 636.22108,294.11335 C 636.22108,294.11335 641.02618,293.33414 642.06512,293.33414 C 643.10406,293.33414 647.12995,295.67176 647.12995,295.67176 L 650.50651,297.23017 L 652.84412,295.15229 L 656.09081,296.84057 L 660.76604,299.17818 L 665.96074,299.56778 L 668.81783,303.33394 L 674.40213,303.20408 L 676.22028,306.06116 L 679.85657,305.02222 L 686.47981,306.06116 L 693.23293,307.35984 C 693.23293,307.35984 696.09001,309.30785 696.34975,310.86626 C 696.60948,312.42467 699.3367,314.76229 699.85617,316.19083 C 700.37564,317.61937 703.62233,318.13884 703.7522,318.78818 C 703.88206,319.43752 704.66127,322.2946 704.66127,323.72315 C 704.66127,325.15169 706.34955,326.7101 706.47942,327.35944 C 706.60928,328.00878 706.47942,330.73599 707.12875,331.1256 C 707.77809,331.5152 712.06372,330.99573 712.58319,331.5152 C 713.10266,332.03467 713.62213,332.42427 713.62213,332.42427"
       id="path38368"
       transform="translate(0.714286,-3.066389)" />
    <path
       style="fill:none;fill-rule:evenodd;stroke:blue;stroke-width:1px;stroke-linecap:butt;stroke-linejoin:miter;stroke-opacity:1"
       d="M 335.55108,250.74425 L 336.33362,246.36205 L 339.62027,248.55315 L 339.93328,251.05726 L 341.81136,252.77884 L 349.94973,252.77884 L 352.29734,255.90898 L 352.76686,259.03912 C 352.76686,259.03912 357.93159,257.63056 358.55762,257.63056 C 359.18365,257.63056 362.78331,253.24836 362.78331,253.24836 L 363.56584,248.08363 L 368.10455,246.04904 L 369.98263,243.23191 L 373.42579,245.89253 L 375.14736,249.49219 L 376.71243,250.43124 C 376.71243,250.43124 378.74702,247.61411 378.74702,248.70966 C 378.74702,249.80521 378.2775,252.30932 378.59052,252.93535 C 378.90353,253.56138 380.15559,255.12645 380.15559,255.12645 L 382.50319,250.27473 L 385.47683,250.11822"
       id="path39255"
       transform="translate(0.714286,-3.066389)" />
    <path
       style="fill:none;fill-rule:evenodd;stroke:blue;stroke-width:1px;stroke-linecap:butt;stroke-linejoin:miter;stroke-opacity:1"
       d="M 294.85925,232.11991 L 300.02399,236.1891 C 300.02399,236.1891 299.24145,238.38019 301.90207,238.5367 C 304.56269,238.69321 307.22331,238.69321 307.22331,238.69321 L 305.81475,240.10177 L 307.69283,243.54493 L 310.35345,245.57952 L 312.38804,249.17918 L 313.6401,252.30932 L 317.55277,254.34391 L 323.03052,254.65693 L 323.03052,257.16104 L 330.22984,257.63056 L 333.04697,259.66515 L 340.55931,261.69974 L 343.68945,264.67338 C 343.68945,264.67338 348.22815,264.51687 348.54117,265.2994 C 348.85418,266.08194 351.04528,269.6816 351.04528,269.6816 C 351.04528,269.6816 355.11446,269.52509 354.95796,270.30763 C 354.80145,271.09016 356.99255,272.18571 356.99255,272.18571 C 356.99255,272.18571 357.77508,273.59428 358.40111,273.59428 C 359.02714,273.59428 361.37474,270.30763 361.37474,270.30763 C 361.37474,270.30763 361.53125,267.80352 363.40934,267.80352 C 365.28742,267.80352 367.009,267.96002 368.10455,267.64701 C 369.2001,267.334 370.92167,266.39495 370.92167,266.39495 C 370.92167,266.39495 373.42579,268.11653 374.52133,267.96002 C 375.61688,267.80352 379.21655,265.76892 379.21655,265.76892 C 379.21655,265.76892 384.06826,266.55146 384.06826,265.92543 C 384.06826,265.2994 387.1984,261.69974 387.1984,261.69974 C 387.1984,261.69974 388.29395,258.41309 388.29395,257.47405 C 388.29395,256.53501 388.45046,251.05726 388.45046,251.05726 C 388.45046,251.05726 385.63333,250.58774 385.63333,249.96171 C 385.63333,249.33569 384.22477,243.38842 384.8508,242.76239 C 385.47683,242.13636 387.82443,239.47574 387.82443,239.47574 L 393.61519,237.44115 L 399.40595,235.25005 C 399.40595,235.25005 403.94466,231.18087 405.19671,231.33738 C 406.44877,231.49388 410.98747,229.45929 410.98747,229.45929 C 410.98747,229.45929 411.14398,231.33738 412.55254,231.33738 C 413.96111,231.33738 415.52618,228.20724 415.52618,228.20724 L 417.24776,229.92881 L 420.84742,227.4247 L 426.48167,230.24183 C 426.48167,230.24183 427.89023,231.65039 427.89023,232.43293 C 427.89023,233.21546 428.82928,236.03259 428.82928,236.03259 L 435.08956,236.03259 L 436.65463,239.00622 C 436.65463,239.00622 436.49812,241.97986 436.81113,242.60588 C 437.12415,243.23191 442.60189,243.70143 442.60189,243.70143 L 443.07142,246.20555 L 444.63649,249.80521 L 449.4882,252.77884 L 454.49643,253.56138 L 456.68753,256.06549 C 456.68753,256.06549 459.19164,258.41309 458.72212,259.03912 C 458.2526,259.66515 455.27896,261.38673 455.27896,261.38673 L 458.72212,264.51687 L 461.85226,269.52509 L 463.73034,265.45591 L 464.35637,264.36036 L 468.58206,268.58605 L 473.59029,268.42954 L 471.5557,272.18571 L 474.84234,276.4114 L 474.68584,279.07202 L 479.69406,276.2549 L 483.91975,276.72442 C 483.91975,276.72442 485.0153,277.19394 485.32832,278.44599 C 485.64133,279.69805 486.89339,282.9847 486.89339,282.9847 L 482.19817,283.76723 L 486.42386,286.74087 C 486.42386,286.74087 490.18003,285.80183 490.18003,286.58436 C 490.18003,287.3669 491.43209,290.34053 492.21462,290.34053 C 492.99716,290.34053 494.87524,288.61895 494.87524,288.61895 L 498.78792,291.12306 L 503.17012,291.9056 L 507.08279,294.56622 L 506.92629,299.88746 C 506.92629,299.88746 509.74341,300.51349 509.89992,301.13951 C 510.05643,301.76554 510.52595,304.58267 510.52595,304.58267 L 514.90814,305.83473 C 514.90814,305.83473 519.91637,307.71281 519.29034,307.86932 C 518.66431,308.02582 512.40403,310.06042 512.40403,310.06042 L 513.9691,317.41625 L 517.56876,319.60734 L 521.95096,321.48543 L 526.17665,321.01591 C 526.17665,321.01591 526.02014,323.67653 526.02014,325.55461 C 526.02014,327.4327 528.36775,331.81489 528.36775,331.81489 C 528.36775,331.81489 529.61981,334.63202 529.61981,335.25805 C 529.61981,335.88408 530.08933,339.64025 530.08933,339.64025 L 532.90645,341.51833 L 536.97564,343.23991 C 536.97564,343.23991 534.47152,344.49196 534.47152,345.11799 C 534.47152,345.74402 534.62803,347.4656 534.94105,348.40464 C 535.25406,349.34368 538.07119,352.78684 538.07119,352.78684 C 538.07119,352.78684 543.86195,353.25636 543.86195,353.88239 C 543.86195,354.50841 544.33147,358.42109 544.33147,358.42109 C 544.33147,358.42109 549.80921,363.1163 549.80921,363.89884 C 549.80921,364.68137 550.59175,368.90706 551.21778,369.06357 C 551.84381,369.22008 553.8784,372.50672 553.8784,372.50672 L 552.62634,375.79337 L 553.8784,379.70605 L 556.53902,380.17557 L 556.226,383.1492 L 558.73011,386.74886 L 561.23423,389.56599 L 564.67738,395.35675 C 564.67738,395.35675 564.05135,399.89545 565.30341,400.67799 C 566.55547,401.46052 570.78116,406.31224 570.78116,406.31224 L 570.62465,410.06841 L 572.81575,412.41602 L 574.38082,418.20678 L 574.53733,421.0239 C 574.53733,421.0239 578.29349,420.55438 578.60651,421.18041 C 578.91952,421.80644 583.92775,425.4061 583.92775,425.4061 L 587.84042,427.91021 L 590.18803,430.88385 L 591.28358,432.29241 L 589.24899,435.73556 L 590.97056,436.67461 L 599.42194,436.36159 L 599.73496,438.86571 L 601.92606,440.43078 C 601.92606,440.43078 601.76955,443.2479 601.45654,444.03044 C 601.14352,444.81297 600.04797,446.69106 599.73496,447.31709 C 599.42194,447.94311 598.63941,451.38627 598.63941,451.38627 C 598.63941,451.38627 597.07434,449.8212 596.91783,452.48182 C 596.76132,455.14244 598.63941,455.76847 598.63941,456.70751 C 598.63941,457.64655 601.30003,459.99416 601.30003,459.99416 L 601.14352,471.57568 L 602.08256,475.17534 C 602.08256,475.17534 604.27366,475.01883 604.43017,476.11438 C 604.58668,477.20993 605.52572,478.46199 605.52572,478.46199 L 604.11715,481.1226 L 607.2473,482.68768 L 611.15997,482.68768 L 614.13361,486.13083 C 614.13361,486.13083 617.10724,484.56576 617.26375,485.34829 C 617.42025,486.13083 618.5158,483.47021 618.5158,483.47021 L 623.21101,486.44384 C 623.21101,486.44384 625.55862,486.44384 626.02814,487.6959 C 626.49766,488.94796 629.31479,492.54762 629.31479,492.54762 L 629.31479,497.86886 L 626.49766,502.72058 C 626.49766,502.72058 629.00177,505.85072 629.00177,506.47674 C 629.00177,507.10277 629.00177,508.35483 628.84527,509.45038 C 628.68876,510.54593 626.02814,512.58052 626.02814,513.51956 C 626.02814,514.4586 626.18465,516.02367 626.18465,516.96272 C 626.18465,517.90176 628.68876,519.46683 629.31479,519.77984 C 629.94082,520.09286 632.44493,520.56238 632.44493,520.56238 L 638.86172,523.84903 L 640.11377,528.38773 L 642.77439,531.04835"
       id="path40142"
       transform="translate(0.714286,-3.066389)" />
  </g>
</svg>
